<svg xmlns="http://www.w3.org/2000/svg" width="232" height="42" viewBox="0 0 232 42">
    <g fill="#FFF" fill-rule="evenodd" opacity=".5">
        <path d="M33.746 5.6l-6.75 32.136h-6.685l3.595-16.99c-2.081-.955-4.163-1.528-6.181-1.719-2.776 6.237-4.605 11.9-5.551 17.118-.252 1.464-.442 2.737-.442 3.819 2.65 1.272 5.614 1.972 8.768 1.972 11.29 0 20.437-9.29 20.437-20.681-.126-6.237-2.839-11.837-7.19-15.655z"/>
        <path d="M9.335 19.664c-.946.381-1.513.954-1.829 1.781.126 0 .252.128.379.446.126.318.189.7.189 1.145 0 .446-.252.828-.757 1.21-.505.318-1.135.509-1.892.509-.757 0-1.388-.255-1.956-.7-.567-.446-.82-1.082-.82-1.973 0-1.655.883-3.055 2.65-4.137 1.829-1.145 4.036-1.718 6.749-1.718.63 0 1.45.064 2.397.128 3.973-6.428 8.01-10.628 11.984-12.728a9.874 9.874 0 0 1 2.902-1.018c-2.713-1.336-5.74-2.1-8.894-2.1C9.147.573 0 9.864 0 21.255c0 5.854 2.397 11.136 6.245 14.89.378-3.054 1.703-6.936 3.91-11.709.82-1.845 1.767-3.627 2.776-5.409-1.514.064-2.65.318-3.596.637z"/>
        <path d="M18.608 16.99c2.081.383 3.974.955 5.677 1.655l2.712-12.79c-2.65 1.463-5.425 5.218-8.39 11.136z"/>
        <g>
            <path d="M219.845 13.788v2.2h4.71V26.6h2.736V15.988H232v-2.2zM211.573 23.106c-.255-.518-.382-1.424-.382-2.653 0-1.1.064-1.941.19-2.394.383-1.359 1.4-2.006 3.055-2.006h4.455v-2.2h-5.346c-1.654 0-2.927.453-3.818 1.359-.954.97-1.4 2.717-1.4 5.176 0 2.2.382 3.753 1.146 4.66.89 1.034 2.1 1.552 3.754 1.552h6.046v-2.2h-4.518c-1.719.065-2.737-.388-3.182-1.294zM206.418 20.647c.382-.388.573-1.035.573-1.941 0-2.006-.573-3.365-1.782-4.141-.827-.518-2.227-.841-4.136-.841-2.228 0-3.755.388-4.71 1.229-.636.518-1.018 1.294-1.272 2.265-.127.647-.255 1.682-.255 3.106 0 2.264.319 3.817.891 4.658.764 1.1 2.037 1.618 3.818 1.618h6.937v-2.2h-6.11c-1.463 0-2.29-.518-2.545-1.553-.127-.453-.19-1.035-.19-1.747h7.254c.764.065 1.209-.13 1.527-.453zm-2.863-1.682h-5.728c0-1.036.191-1.812.573-2.2.51-.583 1.336-.841 2.61-.841 1.08 0 1.845.194 2.417.582.51.388.764.97.764 1.682 0 .518-.255.777-.636.777zM193.055 19.224c.381-.453.572-1.1.572-2.136 0-1.035-.19-1.876-.636-2.394-.51-.582-1.464-.906-2.864-.906H184.4c-.764 0-1.273.194-1.655.518-.381.323-.572.841-.572 1.488v8.93c0 .647.19 1.164.509 1.423.318.324.89.453 1.654.453h5.982c1.146 0 2.037-.259 2.546-.841.572-.583.827-1.488.827-2.783 0-.97-.191-1.682-.573-2.135-.382-.453-.89-.776-1.527-.841.573-.13 1.082-.388 1.464-.776zm-2.673 4.852c-.255.26-.7.389-1.273.389h-3.436c-.255 0-.446-.065-.573-.194-.127-.13-.127-.324-.127-.583V21.1h4.327c.51 0 .89.13 1.145.388.255.26.382.647.382 1.23-.063.647-.19 1.1-.445 1.358zm0-5.564c-.255.259-.637.388-1.146.388h-4.327v-2.265c0-.194.064-.388.191-.453.127-.064.318-.13.51-.13h3.69c.51 0 .89.13 1.082.324.254.195.382.583.382 1.165 0 .388-.128.712-.382.97zM177.464 18.9h-5.982v-5.112h-2.737V26.6h2.737v-5.5h5.982v5.5h2.736V13.788h-2.736zM164.1 9.518c-.573 0-1.082.13-1.464.388-.445.259-.89.776-1.272 1.488l-6.682 11.13c-.191.323-.382.517-.446.517-.19 0-.254-.259-.254-.776l.063-12.618h-3.118v14.235c0 1.942.828 2.912 2.418 2.912.764 0 1.337-.194 1.782-.518.255-.194.51-.582.828-1.1l6.809-11.194c.318-.517.509-.776.636-.776s.255.194.255.582L163.59 26.6h3.118V12.559c-.064-2.006-.89-3.041-2.609-3.041zM140.936 13.594h-7.254v2.2h6.3c.636 0 1.082.194 1.4.582.254.324.382.712.382 1.23v.906h-5.537c-1.018 0-1.782.259-2.354.776-.7.647-1.082 1.683-1.082 3.17 0 1.683.382 2.913 1.082 3.56.509.453 1.272.647 2.29.647h6.11c.827 0 1.4-.194 1.782-.518.318-.323.509-.906.509-1.682V17.67c0-2.718-1.21-4.077-3.628-4.077zm.764 10.159c0 .259-.064.453-.19.518-.128.129-.32.129-.637.129h-3.946c-.382 0-.7-.13-.954-.388-.255-.26-.382-.777-.382-1.424 0-.647.127-1.1.318-1.423.191-.26.573-.453 1.018-.453h4.71v3.04h.063zM126.427 13.594h-4.454c-.7 0-1.21.13-1.591.388-.51.389-.7.906-.7 1.618v15.206h2.8V26.6h3.563c2.164 0 3.628-.647 4.455-1.876.7-.971 1.018-2.653 1.018-4.918s-.445-3.882-1.336-4.788c-.891-.906-2.164-1.424-3.755-1.424zm1.655 9.641c-.51.777-1.337 1.23-2.418 1.23h-3.182V16.44c0-.194.063-.323.19-.453.128-.13.255-.194.383-.194h2.736c1.209 0 2.036.518 2.482 1.488.254.518.318 1.489.318 2.783 0 1.553-.191 2.588-.51 3.17zM117.455 20.582c.381-.388.572-1.035.572-1.94 0-2.071-.572-3.43-1.782-4.207-.89-.582-2.29-.84-4.2-.84-2.227 0-3.818.387-4.772 1.229A3.992 3.992 0 0 0 106 17.088c-.19.712-.255 1.747-.255 3.17 0 2.266.319 3.883.891 4.724.764 1.1 2.037 1.618 3.882 1.618h7.064v-2.2h-6.237c-1.463 0-2.29-.518-2.545-1.553-.127-.453-.19-1.035-.19-1.812h7.38c.7.065 1.146-.13 1.465-.453zm-2.928-1.682h-5.854c.063-1.1.254-1.812.572-2.265.51-.582 1.4-.84 2.673-.84 1.082 0 1.91.193 2.418.581.51.389.764.971.764 1.748.064.517-.127.776-.573.776zM92.827 15.794H97.6v10.87h2.8v-10.87h4.773v-2.2H92.827zM91.3 18.576h-5.727V13.66h-2.8v11c0 .712.19 1.23.509 1.553.318.323.763.453 1.4.453h6.49c1.146 0 1.973-.26 2.483-.712.636-.582.954-1.682.954-3.235 0-1.489-.254-2.524-.827-3.17-.7-.648-1.464-.972-2.482-.972zm-.064 5.436c-.254.259-.636.388-1.209.388h-3.69c-.319 0-.51-.065-.637-.194-.127-.13-.19-.388-.19-.712v-2.782h4.58c.51 0 .892.13 1.146.388.255.259.319.712.319 1.424.063.711-.064 1.229-.319 1.488zM74.945 13.465c-.954 0-1.59.388-1.845 1.1l-4.964 11.647L61.964 11.2c-.319-.712-.637-1.23-1.082-1.488-.382-.26-.955-.453-1.718-.453-.764 0-1.337.13-1.719.388-.381.259-.763.777-1.018 1.553L50 26.665h3.373l1.718-4.336h8.082l1.718 4.336h5.918l3.946-10.03c.127-.259.19-.388.254-.388s.127.13.255.388l3.945 10.03h2.864l-5.155-12.1c-.382-.712-1.018-1.1-1.973-1.1zM55.918 20l2.737-6.988c.19-.453.381-.712.509-.712.127 0 .318.259.509.712L62.345 20h-6.427z"/>
        </g>
    </g>
</svg>
