<svg xmlns="http://www.w3.org/2000/svg" width="45" height="63" viewBox="0 0 45 63">
    <g fill="#000" fill-rule="evenodd">
        <path d="M15.468 44.11h1.345v-1.346h-1.345v1.346zm-2 2h5.345v-5.346h-5.345v5.346zM21.823 44.11h1.345v-1.346h-1.345v1.346zm-2 2h5.345v-5.346h-5.345v5.346zM28.178 44.11h1.345v-1.346h-1.345v1.346zm-2 2h5.345v-5.346h-5.345v5.346zM34.534 44.11h1.345v-1.346h-1.345v1.346zm-2 2h5.345v-5.346h-5.345v5.346zM15.468 50.466h1.345V49.12h-1.345v1.346zm-2 2h5.345V47.12h-5.345v5.346zM21.823 50.466h1.345V49.12h-1.345v1.346zm-2 2h5.345V47.12h-5.345v5.346zM28.178 50.466h1.345V49.12h-1.345v1.346zm-2 2h5.345V47.12h-5.345v5.346zM15.468 56.821h1.345v-1.345h-1.345v1.345zm-2 2h5.345v-5.345h-5.345v5.345zM8.975 44.11h1.344v-1.346H8.975v1.346zm-2 2h5.344v-5.346H6.975v5.346zM8.975 50.466h1.344V49.12H8.975v1.346zm-2 2h5.344V47.12H6.975v5.346zM8.975 56.821h1.344v-1.345H8.975v1.345zm-2 2h5.344v-5.345H6.975v5.345zM21.823 56.821h1.345v-1.345h-1.345v1.345zm-2 2h5.345v-5.345h-5.345v5.345zM28.178 56.821h1.345v-1.345h-1.345v1.345zm-2 2h5.345v-5.345h-5.345v5.345zM34.534 56.684h1.345v-7.268h-1.345v7.268zm-2 2h5.345V47.414h-5.345v11.268zM30.523 33.056h5.427v-2h-5.427z"/>
        <path d="M7.195 35.067h30.464V28.26H7.195v6.807zm35.659 23.918c0 .968-.788 1.756-1.756 1.756H3.755A1.758 1.758 0 0 1 2 58.985V11.146c0-.967.788-1.755 1.755-1.755h1.439V37.067h34.465V9.391h1.439c.968 0 1.756.788 1.756 1.755v47.84zM14.448 10.201c-1.317 2.798-2.77 5.911-1.054 9.054H9.356v2H35.95v-2h-5.031c-2.177-2.608-.963-5.208.446-8.202.255-.542.514-1.098.756-1.662h5.538v16.586H7.194V9.391h7.632c-.123.268-.249.537-.378.81zm2.877-8.2h12.687c2.177 2.606.952 5.207-.456 8.2-1.317 2.798-2.784 5.911-1.067 9.054H15.802c-2.177-2.608-.953-5.208.456-8.2C17.575 8.255 19.04 5.14 17.325 2zm23.773 5.39h-8.249c.651-2.288.588-4.689-1.661-7.077L30.893 0H13.038l1.587 1.685c1.756 1.865 1.707 3.72 1.029 5.706H3.755A3.76 3.76 0 0 0 0 11.146v47.84a3.76 3.76 0 0 0 3.755 3.755h37.343a3.76 3.76 0 0 0 3.756-3.756V11.146a3.76 3.76 0 0 0-3.756-3.755z"/>
    </g>
</svg>
