<svg xmlns="http://www.w3.org/2000/svg" xmlns:xlink="http://www.w3.org/1999/xlink" width="217" height="39" viewBox="0 0 217 39">
    <defs>
        <path id="a" d="M11.397.31H.8v7.774h10.598V.31z"/>
    </defs>
    <g fill="none" fill-rule="evenodd">
        <path fill="#FFF" d="M57.15 18.228c.64-2.745 2.709-4.35 5.689-4.35 2.975 0 4.899 1.607 5.293 4.35H57.15zm5.89-8.108c-6.011 0-10.05 4.134-10.05 10.291 0 6.154 4.217 10.291 10.493 10.291 2.88 0 5.613-1.064 7.312-2.852a.894.894 0 0 0 .177-.968l-.683-1.606a.889.889 0 0 0-.661-.529.885.885 0 0 0-.808.26c-1.155 1.191-3.157 1.937-5.216 1.937-3.594 0-5.933-1.926-6.41-5.196h13.917a.898.898 0 0 0 .884-.749c.09-.55.133-1.116.133-1.834 0-5.24-3.822-9.045-9.088-9.045zM51.8 10.48H45.79V8.805c0-4.399 1.904-4.963 3.56-4.963 1.222 0 2.207.316 3.01.963a.896.896 0 0 0 1.366-.296l.802-1.604a.897.897 0 0 0-.213-1.078C53.038.718 51.112.082 49.03.082c-4.59 0-7.119 2.97-7.119 8.364V29.44c0 .497.401.9.896.9h2.087a.898.898 0 0 0 .898-.9V14.243H51.8a.898.898 0 0 0 .897-.898v-1.97a.897.897 0 0 0-.897-.896M82.519 18.574c-2.387-.773-3.85-1.329-3.85-2.82 0-1.158 1.16-1.994 2.756-1.994 1.557 0 3.14.568 4.127 1.486a.894.894 0 0 0 .749.228.894.894 0 0 0 .644-.446l.883-1.564a.9.9 0 0 0-.136-1.064c-1.355-1.407-3.772-2.28-6.307-2.28-3.955 0-6.717 2.332-6.717 5.673 0 4.277 3.506 5.41 6.324 6.324 2.276.734 3.672 1.256 3.672 2.59 0 1.738-1.702 2.352-3.16 2.352-1.71 0-3.795-.813-4.551-1.783a.913.913 0 0 0-.687-.345.9.9 0 0 0-.702.318L74.4 26.611a.897.897 0 0 0-.067 1.076c1.07 1.633 4.247 3.015 6.932 3.015 4.495 0 7.4-2.388 7.4-6.076 0-4.049-3.408-5.159-6.147-6.052M33.28 24.561c-.958 1.203-2.222 2.262-4.644 2.262-1.438 0-3.116-.694-3.116-2.64 0-2.123 2.132-2.878 3.959-2.878 1.459 0 2.707.337 3.802 1.025v2.231zm-3.718-14.44c-2.217 0-4.306.596-6.214 1.78a.89.89 0 0 0-.381 1.037l.56 1.727a.898.898 0 0 0 1.285.507c1.526-.84 2.717-1.294 4.628-1.294 3.08 0 3.713 1.305 3.82 4.648-1.586-.653-3.226-.739-3.98-.739-4.643 0-7.763 2.62-7.763 6.518 0 3.752 2.603 6.276 6.476 6.276 2.107 0 3.852-.556 5.288-1.684v.543c0 .497.4.9.895.9h2.089a.897.897 0 0 0 .896-.9V18.241c0-5.465-2.485-8.12-7.6-8.12zM133.492 26.944c-3.75 0-6.37-2.689-6.37-6.533 0-3.847 2.62-6.532 6.37-6.532 3.751 0 6.37 2.685 6.37 6.532 0 3.844-2.619 6.533-6.37 6.533m0-16.824c-6.01 0-10.369 4.325-10.369 10.291 0 5.96 4.36 10.291 10.37 10.291 6.01 0 10.37-4.33 10.37-10.29 0-5.967-4.36-10.292-10.37-10.292M113.46 10.158c-2.417 0-4.783.983-6.385 2.58-1.11-1.637-3.153-2.58-5.738-2.58-1.904 0-3.843.64-5.365 1.712v-.494a.898.898 0 0 0-.898-.897h-2.088a.899.899 0 0 0-.897.897V29.44a.9.9 0 0 0 .897.9h2.088a.898.898 0 0 0 .898-.9V16.168c.848-1.084 2.493-2.248 4.603-2.248 2.312 0 3.64 1.21 3.64 3.32v12.2c0 .497.402.9.897.9h2.088a.898.898 0 0 0 .897-.9V17.318c0-.4-.004-.767-.04-1.088 1.007-1.452 2.702-2.31 4.6-2.31 2.582 0 3.682 1.27 3.682 4.241v11.28a.9.9 0 0 0 .898.9h2.087a.899.899 0 0 0 .897-.9V17.6c0-6.15-3.676-7.443-6.761-7.443M10.951 13.441c-3.277-1.25-6.107-2.334-6.107-5.437 0-2.49 1.951-4.04 5.086-4.04 2.343 0 4.184.701 5.63 2.146a.89.89 0 0 0 1.357-.106l1.204-1.646a.895.895 0 0 0-.06-1.13C16.303 1.287 13.157.081 9.85.081 4.476.082.722 3.34.722 8.004c0 5.502 4.404 7.245 8.29 8.781 3.35 1.33 6.243 2.473 6.243 5.673 0 2.995-2.99 4.365-5.765 4.365-2.05 0-4.973-.98-6.544-3.129a.892.892 0 0 0-.687-.366.882.882 0 0 0-.715.306L.22 25.162a.896.896 0 0 0-.107 1.024c1.647 2.961 5.984 4.516 9.416 4.516 5.707 0 9.848-3.488 9.848-8.285 0-5.757-4.477-7.466-8.426-8.976M186.12 10.158c-1.934 0-3.994.68-5.608 1.78v-.562a.894.894 0 0 0-.897-.897h-2.087a.897.897 0 0 0-.895.897V29.44c0 .497.4.9.895.9h2.088c.5 0 .895-.403.895-.9V16.133c1.072-1.137 3-2.213 5.13-2.213 3.534 0 5.043 1.676 5.043 5.605v9.915c0 .497.4.9.895.9h2.09a.899.899 0 0 0 .896-.9V19.125c0-5.95-2.841-8.967-8.445-8.967M206.032 21c-2.386 0-4.12-1.515-4.12-3.602 0-2.085 1.734-3.6 4.12-3.6 2.349 0 4.12 1.548 4.12 3.6 0 2.119-1.692 3.602-4.12 3.602m.04 8.097c3.65 0 6.009 1.174 6.009 2.996 0 1.77-2.358 2.919-6.01 2.919-3.648 0-6.006-1.148-6.006-2.92 0-1.821 2.358-2.995 6.007-2.995m10.219-18.793a.89.89 0 0 0-.774-.155l-4.778 1.27c-1.362-.854-2.977-1.3-4.707-1.3-4.661 0-8.043 3.064-8.043 7.279 0 2.61 1.248 4.822 3.388 6.097a3.639 3.639 0 0 0-.296 1.452c0 .39.06.777.18 1.142-3.27 1.023-5.12 3.163-5.12 6.004 0 4.129 3.713 6.596 9.93 6.596 6.126 0 9.932-2.526 9.932-6.596 0-4.121-3.806-6.68-9.931-6.68-.441 0-.834.02-1.226.05a1.457 1.457 0 0 1-.085-.516c0-.125.006-.231.022-.33.374.042.784.063 1.249.063 4.66 0 8.043-3.064 8.043-7.282a7.03 7.03 0 0 0-.63-2.908l2.523-.636a.9.9 0 0 0 .675-.872v-1.966c0-.28-.128-.54-.352-.712M170.143 10.48h-2.088a.896.896 0 0 0-.896.895V29.44c0 .497.401.9.896.9h2.088a.897.897 0 0 0 .896-.9V11.375a.896.896 0 0 0-.896-.896M155.139 19.86l7.813-7.852a.897.897 0 0 0-.636-1.53h-2.728a.899.899 0 0 0-.65.278l-7.888 8.234V1.34a.897.897 0 0 0-.9-.897h-2.085a.897.897 0 0 0-.9.896v28.102a.9.9 0 0 0 .9.9h2.085a.9.9 0 0 0 .9-.9V21.03l8.568 9.027a.893.893 0 0 0 .65.284h2.824a.9.9 0 0 0 .898-.899.873.873 0 0 0-.351-.707l-8.5-8.874z"/>
        <g transform="translate(163 -.31)">
            <mask id="b" fill="#fff">
                <use xlink:href="#a"/>
            </mask>
            <path fill="#FFF" d="M10.82.91c-.336 0-.475.139-.475.139L7.76 2.933S6.875.793 6.795.603C6.716.41 6.637.31 6.368.31H5.83c-.27 0-.349.1-.427.293l-.966 2.33-2.584-1.884s-.137-.14-.474-.14h-.336c-.205 0-.31.167-.197.447A989.291 989.291 0 0 0 3.18 7.19c.238.572.602.893 1.282.893H7.734c.683 0 1.044-.321 1.285-.893.196-.472 1.792-4.478 2.334-5.835.11-.28.006-.446-.196-.446h-.338z" mask="url(#b)"/>
        </g>
    </g>
</svg>
