<svg xmlns="http://www.w3.org/2000/svg" width="796" height="596" viewBox="0 0 796 596">
    <g fill="#E4F3F8" fill-rule="evenodd" opacity=".163">
        <path d="M192.578 197.24c.512-9.63 7.279-13.94 15.738-13.622 10.426.39 15.426 5.748 14.536 18.17-.541 7.603-7.986 13.086-17.614 12.223-6.175-.556-13.983-7.064-12.66-16.771M175.614 183.735c8.157-1.267 15.416 6.708 15.488 14.569.078 8.267-8.021 16.233-14.938 15.778-9.163-.608-15.178-6.666-15.569-15.342-.384-8.492 6.352-14.95 15.02-15.005M144.1 245.847c-7.402.973-14.208-7.252-14.04-14.922.175-7.964 6.781-14.392 15.543-14.167 8.303.216 13.798 7.71 13.646 15.558-.137 7.179-7.08 14.373-15.148 13.53M337.613 503.132c-8.629.68-13.693-6.383-13.799-14.13-.118-8.802 7.602-15.326 14.208-14.985 6.648.344 15.137 8.396 14.985 15.092-.157 6.924-7.82 14.057-15.394 14.023M562.27 212.646c-7.913 1.297-14.118-7.496-14.176-13.999-.068-8.009 7.105-15.073 15.04-15.045 6.398.018 14.793 7.657 14.117 15.617-.7 8.25-5.961 13.492-14.98 13.427M416.61 294.938c1.06 6.921-6.415 13.176-13.36 13.307-7.03.134-11.488-2.805-15.017-7.998-1.858-2.73.19-10.45 2.698-13.791 2.876-3.825 6.012-5.113 11.016-4.63 6.19.591 10.912 1.983 13.785 6.837 1.003 1.695.626 4.16.877 6.275M710.09 520.982c-1.067-6.49 7.499-14.204 13.7-13.812 7.169.454 14.097 6.915 14.08 13.993-.019 7.085-6.965 13.549-14.254 13.834-6.051.234-14.58-6.954-13.525-14.015M628.913 211.306c-9.874-.565-14.606-3.368-14.461-13.855.102-7.272 6.538-13.798 13.874-13.849 7.688-.053 13.453 6.188 13.97 14.11.463 7.12-6.267 14.891-13.383 13.594M383.532 264.168c-.071 6.713-7.115 13.51-13.844 13.582-7.318.075-14.232-6.815-14.02-13.853.225-7.308 4.103-14.35 14.821-13.98 7.784.266 13.132 5.943 13.043 14.251M195.164 230.479c-.979-7.908 7.24-13.918 13.906-13.722 6.231.184 12.972 6.678 12.536 14.511-.463 8.365-5.424 13.44-13.805 13.33-7.61-.098-12.762-5.856-12.637-14.12M47.227 436.8c-8.867.535-13.565-5.674-12.597-14.302.803-7.195 4.698-12.791 14.867-12.083 7.043.49 11.523 5.946 11.55 14.161.03 7.674-5.523 13.001-13.82 12.224M323.964 264.088c0-7.988 5.98-13.718 13.31-14.162 7.863-.48 13.005 6.721 13.08 13.7.073 6.73-7.468 15.365-13.068 13.976-3.196-.793-7.498-.45-9.767-4.141-1.877-3.057-4.344-5.87-3.555-9.373M189.776 230.872c.018 7.122-6.162 13.73-12.837 13.728-7.037-.003-13.92-6.63-13.7-13.637.235-7.66 3.905-13.281 13.55-12.862 7.707.334 12.965 5.15 12.987 12.77M692.392 179.585c-7.058.588-12.894-5.587-12.915-13.008-.019-6.435 6.05-13.9 12.73-13.455 6.486.435 14.184 6.99 13.798 13.035-.414 6.512-5.24 13.814-13.613 13.428M658.665 565.435c-7.153.739-13.015-4.762-12.308-13.721.594-7.506 5.89-12.836 13.657-12.732 6.288.082 12.926 7.558 12.826 14.432-.097 6.822-6.392 12.155-14.175 12.02M659.454 147.703c-7.362.984-13.499-5.79-13.14-12.834.395-7.71 5.675-13.222 13.1-13.584 5.679-.277 13.937 7.764 13.402 13.776-.632 7.087-5.909 12.627-13.362 12.642M531.662 179.624c-7.337-.022-12.712-5.719-12.764-13.426-.056-8.476 4.348-12.886 12.94-13.093 6.319-.148 14.034 6.425 13.582 13.333-.4 6.052-7.472 13.207-13.758 13.186M99.598 456.052c-.807-6.814 5.948-13.241 13.608-12.486 5.853.575 12.927 7.47 12.868 13.437-.058 6.369-7.61 13.138-14.519 13.022-6.988-.116-12.061-6.045-11.957-13.973M498.796 122.715c8.546-1.065 13.064 5.735 13.434 11.315.505 7.63-5.097 13.087-12.245 13.732-6.394.578-14.29-5.808-14.265-12.269.03-7.213 4.037-13.327 13.076-12.778M338.404 210.12c-7.112.142-13.073-4.881-13.26-11.18-.184-6.284 5.783-12.53 12.05-12.68 8.52-.206 12.603 5.586 13.122 11.79.56 6.685-4.979 11.93-11.912 12.07M132.76 456.08c-.007-6.895 5.375-12.665 11.84-12.573 6.073.08 11.938 5.883 11.998 12.555.056 6.215-5.074 11.191-11.808 11.31-7.89.136-12.619-5.388-12.03-11.292M433.227 242.92c-4.204 1.597-6.51-2.613-9.44-4.748-2.429-1.767-1.676-5.323-1.597-8.189.157-5.712 6.406-10.813 12.833-10.57 6.307.244 11.197 6.516 10.868 13.947-.194 4.465-6.9 9.776-12.664 9.56M293.335 263.16c-.627-6.164 5.317-12.385 11.326-11.904 6.835.543 12.121 5.017 12.503 11.289.369 6.05-6.64 12.746-12.224 12.55-6.382-.225-11.569-5.359-11.605-11.935M594.347 541.693c7.223-.731 13.41 5.328 13.466 10.874.055 5.193-6.794 12.79-11.757 12.931-5.085.148-12.108-5.009-12.13-8.9-.055-10.875 2.628-14.715 10.421-14.905M35.923 553.217c-.898-6.577 4.975-12.026 11.397-11.556 6.365.463 12.37 5.59 12.4 11.479.03 5.302-7.01 12.211-12.394 12.358-5.5.147-12.334-5.15-11.403-12.28M59.72 294.42c.003 5.892-6.827 12.656-12.618 12.5-5.905-.16-10.835-6.02-11.246-12.383-.435-6.74 5.085-11.541 11.342-11.482 6.662.069 12.519 5.247 12.522 11.365M615.854 553.089c.04-7.204 4.203-11.463 11.196-11.457 6.332.01 12.357 5.579 12.61 11.651.211 5.132-7.258 12.394-12.75 12.215-5.476-.182-11.918-4.926-11.056-12.41M380.84 166.268c-.051 6.922-5.39 12.835-11.533 11.94-5.933-.865-11.055-3.826-10.989-12.317.06-7.39 4.97-11.666 11.886-11.455 7.14.215 11.112 4.123 10.636 11.832M209.512 176.905c-4.652.084-11.544-3.568-11.688-6.135-.72-12.649 3.128-15.785 10.83-16.312 6.293-.432 11.557 4.002 11.644 11.044.087 6.661-4.655 12.14-10.786 11.403M648.955 198.117c.11-8.04 2.884-10.41 11.377-10.536 6.226-.089 11.445 5.56 11.172 11.634-.258 5.8-5.732 10.965-11.912 10.907-6.77-.061-10.738-4.543-10.637-12.005M112.016 220.737c7.473-.202 11.186 4.75 11.4 10.606.202 5.534-6.395 12.426-11.702 11.902-4.508-.44-11.287-4.406-10.832-11.63.497-7.924 2.372-10.805 11.134-10.878M553.617 167.846c-.027-6.731 4.95-12.14 10.646-12.09 4.24.036 9.021 6.002 9.045 11.281.021 5.215-3.477 10.836-6.651 10.962-3.454.142-7.21 1.311-9.658-2.215-1.72-2.483-4.373-4.765-3.382-7.938M230.916 230.69c.03-6.357 3.956-10.01 10.701-9.959 5.767.042 10.577 4.65 10.532 10.076-.044 5.123-5.246 9.811-10.886 9.814-6.632.003-10.377-3.59-10.347-9.931M456.425 585.548c.003-5.746 4.115-10.478 9.138-10.514 5.231-.038 10.403 5.138 10.412 10.419.006 5.31-5.103 10.55-10.284 10.547-4.963-.003-9.269-4.863-9.266-10.452M177.168 477.983c5.27.058 10.016 5.194 9.953 10.774-.051 4.552-5.329 10.203-9.749 10.43-5.773.299-10.278-4.74-10.155-11.364.115-6.222 3.84-9.903 9.95-9.84M476.43 199.125c.009 5.681-4.208 9.638-10.3 9.671-6.632.033-9.576-2.878-9.606-9.51-.028-5.954 4.005-10.356 9.521-10.38 4.996-.027 10.379 5.27 10.385 10.219M585.297 199.21c-.003-6.466 3.554-10.28 9.607-10.304 5.564-.024 10.221 4.63 10.255 10.24.033 5.646-4.235 9.722-10.292 9.65-6.177-.076-10.078-2.51-9.57-9.587M725.303 125.256c5.94.034 9.955 3.968 9.912 9.722-.038 4.823-5.55 10.233-10.36 10.168-5.073-.074-9.559-4.999-9.547-10.483.013-5.702 3.985-9.44 9.995-9.407M305.704 208.796c-5.948.007-9.723-3.725-9.76-9.535-.034-5.55 2.44-9.25 9.908-9.019 6.88.214 9.995 2.92 9.998 9.137.004 5.491-4.217 9.414-10.146 9.417M295.944 230.629c.034-5.273 4.584-9.895 9.736-9.898 4.24 0 10.098 5.71 10.17 9.92.078 4.578-5.758 10.026-10.68 9.97-4.83-.053-9.257-4.85-9.226-9.992M401.549 174.312c-5.646.167-8.76-2.606-8.726-8.72.025-4.985 3.152-8.8 9.028-8.494 5.762.3 9.597 3.632 9.55 8.942-.043 4.883-4.122 8.307-9.852 8.272M184.427 167.227c-.013 6.12-2.275 8.43-8.244 8.418-5.869-.012-9.019-3.056-8.967-8.661.039-4.036 4.853-8.311 9.102-8.56 5.142-.306 8.565 3.532 8.109 8.803M489.793 102.552c-.226-5.561 3.043-7.965 8.99-7.786 5.475.168 8.256 2.398 8.168 8.265-.069 4.56-3.561 7.55-8.686 7.637-5.604.095-9.193-3.428-8.472-8.116M683.547 102.835c-.744-4.92 3.27-8.3 8.198-8.067 6.063.289 7.665 1.729 7.638 8-.025 5.573-2.293 7.753-7.818 7.897-5.253.138-8.542-2.809-8.018-7.83M402.501 239.295c-5.64.022-8.333-2.477-8.351-7.753-.022-5.202 2.794-8.178 7.72-8.159 5.241.025 8.241 3.006 8.204 8.159-.046 6.408-1.332 7.725-7.573 7.753M394.207 553.127c-.563-4.978 3.057-7.662 8.265-7.51 5.503.166 7.572 2.145 7.602 7.616.034 5.472-2.72 8.317-8.012 8.29-5.29-.03-7.876-2.79-7.855-8.396M363.648 100.946c.18-4.665 2.074-6.333 7.025-6.18 3.667.11 6.367 3.413 6.218 7.605-.148 4.242-3.196 7.112-7.389 6.967-4.491-.16-6.085-2.447-5.854-8.392M563.382 545.61c4.294-.011 7.234 2.7 7.272 6.713.02 1.932-3.87 6.595-5.46 6.548-6.007-.176-9.17-2.514-9.138-6.736.033-4.199 2.632-6.513 7.326-6.524M343.637 165.113c.595 5.663-2.078 7.798-5.941 7.878-4.461.091-7.072-1.987-7.211-5.835-.228-6.27.494-7.407 5.6-7.422 7.493-.024 7.54.293 7.552 5.38M234.898 488.258c-.033-4.317 1.785-6.385 6.07-6.295 3.643.073 7.435 2.524 7.189 6.51-.199 3.248-3.492 6.704-6.765 6.747-3.847.047-6.461-2.757-6.494-6.962M363.627 68.91c.067-4.68 1.403-5.876 6.277-5.976 3.953-.077 7.363 2.87 6.96 6.648-.384 3.648-3.319 6.654-7.099 6.61-3.893-.044-6.2-2.781-6.138-7.282M13.728 269.787c-4.97-.129-5.896-1.159-5.752-6.402.089-3.177 4.028-6.747 7.285-6.849 3.034-.093 6.185 2.9 5.961 7.318-.215 4.297-2.335 6.066-7.494 5.933M15.264 321.51c4.343.04 6.034 1.915 5.968 6.624-.067 4.697-1.888 6.651-6.18 6.636-4.236-.018-7.086-2.75-7.09-6.794 0-3.96 2.87-6.502 7.302-6.466M789.362 9.336c-3.756 1.532-5.095-.232-5.043-3.804.055-3.602 1.25-4.947 4.526-4.923 3.99.029 4.84.825 4.757 4.673-.055 2.516.125 5.355-4.24 4.054M691.108 557.473c-2.65.454-3.633-1.282-3.667-4.027-.05-3.925 1.031-5.24 4.276-5.182 2.939.05 5.069 2.252 5.01 5.17-.063 2.977-1.423 4.042-5.62 4.039M394.15 276.425l.111.063-.085-.034c0 .002-.026-.03-.026-.03M481.823 555.113l-.085-.22.194.01zM395.516 276.56c-.008-.05-.031-.085-.04-.135.006.04.006.066.011.103l.03.032z"/>
        <path d="M914.85 118.249c-3.892 1.56-6.835 4.295-9.311 7.608-.982 1.312-2.043 2.567-3.322 4.17-1.934-4.928-4.613-8.705-8.674-11.4-2.073-1.372-1.746-1.909.536-2.946 3.237-1.464 5.053-4.734 7.062-7.55.646-.91.715-1.958 2.182-1.676 1.128.221 1.716.636 2.273 1.852 1.795 3.883 4.265 7.214 9.111 7.532.821.055 1.97-.06 2.13.943.222 1.403-1.16 1.136-1.988 1.467zm-34.507-31.005c-3.918.961-6.589 3.35-7.698 7.266-.385 1.364-1.367 1.554-2.443 1.748-1.088.2-1.209-.618-1.703-1.354-2.049-3.059-3.27-6.632-7.738-7.82-2.76-.737.716-2.913 1.03-3.192 2.925-2.6 6.514-4.526 7.102-9.024.112-.84 1.173-.609 1.885-.606 1.143.006 1.61.57 1.94 1.691 1.091 3.69 3.485 6.272 7.259 7.233 1.415.36 1.748 1.051 1.642 2.067.155 1.218-.239 1.737-1.276 1.991zm-1.909 32.817c-3.343.855-5.325 2.95-5.786 6.46-.167 1.282-.894 2.185-2.364 2.324-2.052.197-1.518-1.44-1.791-2.458-.794-2.964-3.45-4.34-5.516-6.074-.749-.63-1.449-1.446-2.307-2.028-1.779-1.218-1.251-1.83.603-2.464 3.586-1.228 6.268-3.55 7.296-7.372.566-2.094 1.27-1.882 2.597-.476 1.991 2.107 3.376 4.702 5.828 6.5.864.633 1.616 1.15 2.604 1.393.706.173 1.385.33 1.773 1.428-1.394.488-1.303 2.349-2.937 2.767zm-35.73 34.22c-1.307 1.42-2.798 2.602-2.698 4.857.033.785.31 2.146-1.13 2.3-1.085.112-1.998-.655-2.331-1.476-2.07-5.09-6.168-8.002-11.323-10.436 3.87-1.167 6.768-2.955 9.42-5.362 1.245-1.133.809-2.685 1.86-3.67 1.037-.967 2.083-2.428 3.31-.37 3.607 6.047 3.57 6.068 9.468 9.275-1.106 3.352-4.697 2.84-6.576 4.883zm5.34 94.527c-3.992 1.273-6.59 4.004-7.977 7.92-.591 1.655-1.4 2.25-2.78.694-.64-.721-1.166-1.442-1.49-2.415-1.089-3.247-3.207-5.56-6.687-6.253-1.24-.246-1.943-.658-2.015-2.031-.058-1.146.145-1.876 1.436-1.998 3.595-.342 5.247-3.325 7.083-5.731.685-.895 1.71-1.504 2.252-2.61.552-1.13 1.664-.997 2.05.315 1.227 4.177 4.088 6.699 8.016 8.184 1.173.449 1.009 1.519 1.258 2.21.093 1.054-.31 1.448-1.146 1.715zm-20.58-34.7c4.368-2.394 7.326-6.128 10.178-10.035 1.252-1.716 2.085-1.319 2.373.76.482 3.526 3.434 5.117 5.898 6.942.952.706 2.04 1.233 2.77 2.206.467.625.719 1.534-.185 1.82-4.464 1.4-7.477 4.16-8.743 8.735-.073.257-.53.412-.746.572-1.546-.078-2.08-1.488-2.7-2.276-2.307-2.946-4.147-6.256-8.353-6.908-1.1-.172-1.434-1.294-.491-1.815zm-2.69-31.643c5.827-2.055 9.21-5.544 11.765-10.015.476-.84 1.679-1.849 2.47-1.785 1.379.106.976 1.721 1.052 2.682.233 2.958 2.527 4.198 4.503 5.699.525.394 1.392.084 1.94.757 1.252 1.531 5.183 2.665-.367 4.304-2.524.746-5.407 3.49-6.125 7.09-.521 2.607-2.134 1.63-3.43.624-.516-.397-.774-1.154-1.104-1.776-2.128-3.992-5.592-6.292-10.705-7.58zm7.061-68.072c2.085-2.079 3.661-4.574 5.789-6.59 1.073-1.015 1.785-1.406 2.312.195 1.352 4.089 3.986 6.78 8.138 7.999.388.115.682.551.988.812-.312 1.622-1.66 2.361-2.564 3.016-2.949 2.13-5.955 4.034-6.67 8.002-.219 1.197-1.286 1.4-1.72.415-.524-1.194-2.109-1.07-2.351-2.543-.337-2.052-2.44-2.889-3.567-4.42-1.155-1.572-4.153-.866-4.301-3.74-.149-2.818 2.718-1.918 3.946-3.146zm-14.89 165.408c-2.17 2.155-5.359 2.943-7.208 5.574-.948 1.349-2.497 2.28-2.394 4.237.033.646-.388 1.228-1.082 1.152-.358-.04-.785-.494-.973-.867-2.516-4.968-6.562-8.29-11.417-10.775-.285-.146-.446-.53-.743-.904 1.952-1.503 4.725-.427 6.583-2.818 1.237-1.598 3.131-2.568 3.646-4.905.255-1.142 1.291-2.591 2.728-2.515 1.273.066.937 1.76 1.48 2.521 2.175 3.07 4.118 6.566 8.573 6.88.764.058 1.87-.187 2.107.925.194.9-.819 1.019-1.3 1.495zm-.667-33.684c-.122.93-.249 1.888-1.294 2.418-3.74 1.913-6.844 4.226-7.91 8.787-.431 1.843-1.413.313-2.044-.627-2.388-3.558-4.585-7.393-9.38-8.226-1.158-.2-1.076-1.122-1.149-1.95-.066-.775.04-1.554.98-1.624 5.31-.382 6.976-4.953 9.628-8.366.376-.482.567-1.021 1.273-1.045.685.17.812.709.991 1.321 1.1 3.828 3.992 6.056 7.295 7.817.73.391 1.758.334 1.61 1.495zm-1.619-29.856c-3.443 1.227-5.922 3.867-7.225 7.374-.303.813-.497 1.558-1.397 2.007-1.361-.591-2.395-1.585-2.81-3.019-.973-3.377-3.164-5.486-6.47-6.438-1.94-.56-1.95-1.337-.583-2.616 3.392-3.176 7.392-5.795 9.178-10.436.578-1.5 1.615-.345 1.69.291.613 5.074 4.905 7.123 8.148 9.97 1.81 1.585 2.018 1.957-.53 2.867zm-13.008-39.222c1.497-1.752 1.782-4.034 3.416-5.577.403-.382.488-1.13 1.24-1.097.56.027.83.415.902.94.643 4.625 4.19 6.87 7.693 8.944 2.433 1.44 2.497 2.012-.043 3.395-3.943 2.146-6.768 5.498-8.674 10.369-3.434-5.292-6.628-10.206-13.239-11.109 2.55-3.064 6.332-3.089 8.705-5.865zm-6.474-28.434c2.197-1.4 4.71-2.195 6.616-4.25 1.676-1.81 1.392-4.358 3.077-6.056.527-.527.824-1.149 1.679-.994.718.127 1.009.676 1.027 1.297.158 5.232 3.84 7.693 7.802 9.894 1.89 1.051 1.948 2.01.006 2.943-4.556 2.191-7.335 5.865-9.078 11.548-2.558-6.104-6.31-9.878-11.353-12.433-1.249-.634-.943-1.207.224-1.95zm.952 225.037c4.437-1.21 6.786-4.656 8.916-8.323.273-.476.043-1.33.861-1.367.84-.037 1.291.636 1.48 1.333 1.136 4.18 4.042 6.63 7.919 8.066 1.149.427 1.436 1.146 1.442 2.191.061.916-.151 1.674-1.151 1.983-4.174 1.279-6.914 3.989-8.22 8.171-.206.658-.585 1.41-1.427 1.37-.791-.03-.573-.936-.891-1.351-2.528-3.27-4.186-7.505-8.99-8.33-.924-.16-1.515-.597-1.552-1.67-.04-1.197.582-1.794 1.613-2.073zm10.232 47.19c-2.613-5.668-6.135-9.108-10.266-11.987-1.09-.761-1.648-1.961-.184-2.453 4.649-1.548 6.98-5.037 8.731-9.25.316-.752.564-2.113 1.764-1.986 1.104.119.652 1.376.976 2.086 2.2 4.783 5.25 8.626 11.078 9.69-5.62 3.107-10.42 6.556-12.1 13.9zm25.707 15.547c1.946-1.307 3.22-3.58 3.895-5.902.436-1.485 1.2-2.48 2.64-2.503 1.955-.04 1.14 1.77 1.424 2.752 1.137 3.98 3.886 6.398 7.526 7.923.685.288 1.652.458 1.706 1.088.085.937-.897 1.115-1.71 1.403-4.221 1.513-6.343 4.917-7.582 8.939-.513 1.661-.67 1.967-2.198.655-1.406-1.207-1.933-2.907-3.2-4.132-2.661-2.57-4.962-5.586-8.932-6.71 2.691-.591 4.534-2.24 6.431-3.513zm-3.224-30.465c3.306-2.859 6.398-5.956 8.756-9.676.44-.694.475-1.776 1.606-1.53.86.185.755 1.094.864 1.803 1.467 9.357 15.166 12.049 20.719 8.424 2.47-1.613 5.055-2.747 6.637-5.405.252-.424.791-.721.964-1.346.327-1.179-.467-3.225 1.252-3.328 1.563-.094 2.448 1.931 2.936 3.159 1.61 4.046 4.22 6.777 8.384 8.068.527.164 1.203.63 1.342 1.095.234.785-.478 1.357-1.118 1.676-1.688.84-3.622 1.324-5.089 2.437-1.776 1.336-3.582 2.861-3.512 5.568.036 1.4-1.05 2.1-2.42 2.2-1.748.134-1.318-1.33-1.645-2.26-1.421-4.035-4.664-6.015-8.338-7.718-5.992-2.78-11.453-.876-16.466 2.1-1.703 1.01-3.283 3.429-3.704 5.935-.13.758.14 1.807-1.891 2.025-.503-.615-1.622-1.485-2.082-2.619-1.416-3.464-4.016-5.544-7.32-6.904-1.045-.43-2.076-.807-2.146-2.116-.09-1.746 1.607-1.013 2.27-1.588zm52.478 35.493c-1.451.78-3.26 1.019-4.519 2-2.024 1.586-4.328 3.165-4.155 6.32.067 1.228-.5 2.01-1.94 2.022-1.106.006-1.8-.133-1.997-1.44-.76-5.07-4.916-7.047-8.72-9.29-.6-.354-1.454-.518-1.388-1.273.03-.358.858-.803 1.391-.933 4.256-1.043 6.526-4.271 8.475-7.763.454-.812.615-1.528 1.7-1.33.746.351 1.697.336 2.158 1.188 2.028 3.767 4.543 6.916 8.95 8.153 1.452.41 1.303 1.673.045 2.346zM775.043 192.05c-.233.557-1.106 1.23-1.633 1.191-.649-.049-.71-1.134-1.073-1.676-2.334-3.45-4.362-7.344-9.23-7.839-.863-.087-1.772-.227-1.848-1.321-.097-1.4 1.027-1.473 1.976-1.534 2.537-.163 4.019-1.633 5.313-3.686 1.491-2.352 4.72-3.652 4.546-7.483 3.283 5.434 6.477 10.73 13.945 12.445-5.719 2.261-9.898 4.871-11.996 9.903zm-2.185 131.838c-.164-7.753-6.704-9.032-10.805-12.903 4.037-1.803 6.759-4.57 9.35-7.529.382-.44.8-.734.964-1.352.26-.991-.255-2.585.991-2.837 1.734-.355 1.419 1.685 1.864 2.543 2.373 4.565 6.113 7.369 11.632 9.339-6.8 1.921-10.407 6.38-13.996 12.74zm.606 31.302c-2.455-5.753-5.88-9.427-11.468-11.182 4.082-4.386 10.683-5.753 11.04-12.897 2.774 5.441 7.157 9.2 12.676 13.091-6.659.898-9.093 5.98-12.248 10.988zm-8.798 18.383c3.158-2.528 6.64-4.71 7.916-8.902.082-.276.425-.636.673-.66.703-.064 1.137.536 1.294 1.06 1.261 4.186 4.025 6.808 8.029 8.466 1.894.785 1.797 3.222.376 3.716-4.77 1.661-7.192 5.195-9.038 9.463-.067.158-.394.206-.9.452-1.298-4.535-4.604-7.2-8.056-9.512-2.298-1.54-1.961-2.746-.294-4.083zm17.724 35.521c-2.828 2.567-6.043 4.844-7.632 8.5-.378.872-.403 1.866-1.751 2.145-1.392-4.486-4.104-8.038-7.938-10.681-1.904-1.313-2.989-1.746.154-3.334 3.077-1.558 5.88-4.162 7.183-7.727.258-.697.228-1.448 1.243-1.406.837.036 1.234.621 1.646 1.234 1.37 2.049 1.46 4.82 3.719 6.386.97.673 1.627 1.8 3.027 1.764 1.261-.033 2.319.882 2.45 1.8.17 1.183-1.516.789-2.101 1.32zm1.576-164.255c1.037.106 1.428.672 1.334 1.727-.091 1.073-.391 1.84-1.613 2.004-4.895.657-7.24 4.143-9.017 8.223-.297.688-.59 1.343-1.406 1.4-.215.015-.612-.385-.67-.651-.885-4.159-4.58-6.035-7.22-8.693-2.324-2.34-2.1-2.343.35-4.46 2.527-2.184 5.355-4.391 6.73-7.689.252-.603-.072-1.546 1.244-1.473.278.391.715.821.94 1.349 1.809 4.234 4.251 7.726 9.328 8.263zm-1.064-28.786c-3.782 1.5-6.183 4.422-8.107 7.814-.419.74-.622 1.718-1.625 1.597-.964-.118-.424-1.267-.8-1.764-2.358-3.125-4.47-6.541-8.626-7.68-.797-.216-2.285.327-2.124-1.246.127-1.225.842-2.34 2.24-2.477 5.916-.579 7.022-5.595 9.65-10.675 1.712 5.913 6.046 8.835 9.756 12.297 1.027.96.764 1.685-.364 2.134zm-21.637 61.988c4.94-.48 6.983-3.55 9.499-5.993.515-.5.951-1.085 1.397-1.655.61-.773-.306-2.44 1.367-2.549 1.794-.121 2.288 1.722 2.446 2.674.633 3.858 3.961 4.928 6.516 6.616 2.322 1.534 1.852 1.998-.1 3.359-2.567 1.794-5.013 3.807-6.938 6.42-.936 1.273-.248 3.27-2.552 4.207-1.112-6.353-6.119-9.257-11.635-13.08zm12.208-143.184c3.804 10.76 6.304 11.997 11.736 14.694-2.11 2.228-5.292 2.959-7.071 5.484-1.58 2.24-4.883 3.804-2.443 7.398.767 1.128-.63 1.331-1.122 1.864-.5.546-1.203.964-1.83.146-1.528-1.98-3.9-3.783-3.234-6.574.685-2.868-1.294-3.765-2.9-4.871a21.126 21.126 0 0 0-7.605-3.31c6.968-2.907 11.369-8.096 14.47-14.831zm-31.411 185.758c-.603.664-1.494 2.137-2.27.054-1.555-4.18-4.644-6.771-8.63-8.474-.53-.228-.996-.604-1.966-1.204 5.18-2.128 9.01-4.807 10.778-9.872.524-1.506 1.557 0 2.16.54 2.44 2.191 4.104 5.083 6.777 7.144 1.407 1.088 3.35.679 4.65 2.543-5.41 1.227-8.15 5.595-11.5 9.269zm8.704 24.309c-3.182.621-4.7 3.385-6.489 5.55-.76.918-1.93 1.649-2.406 2.973-.303.843-1.464.919-1.955-.151-2.085-4.568-5.57-7.578-10.469-9.3 3.613-4.346 10.672-5.195 10.79-12.779 2.067 2.165 3.207 3.79 4.35 5.56 1.406 2.173 3.206 4.516 6.407 4.819.848.082 2.364.63 2.306 1.927-.064 1.461-1.521 1.204-2.534 1.4zm-19.036 28.913c4.994-.915 6.076-5.15 8.183-8.56.27-.44.524-.776 1.333-.827.83.973 2.216 1.934 2.652 3.219 1.158 3.43 3.18 5.52 6.862 5.798 1.276.094 1.913.612 1.964 2.019.052 1.464-.615 1.906-1.891 2.019-3.786.336-6.077 2.34-6.925 6.092-.2.885-.852 1.728-1.461 2.452-.985 1.161-2.152 2.067-2.589-.385-.16-.9-.824-1.46-1.088-2.182-1.194-3.268-4.14-4.438-6.77-5.999-1.952-1.155-1.5-3.425-.27-3.646zm17.618 36.348c-2.591 1.025-4.592 2.701-5.289 5.38-.41 1.561-2.158 1.713-2.546 3.235-.16.63-1.521.433-1.649-.388-.906-5.89-5.934-7.939-9.962-10.933-.082-.061-.088-.219-.194-.51 5.404-.6 7.992-4.452 10.044-8.844.288-.625.112-1.492 1.11-1.552.842-.052 1.403.5 1.697 1.149 1.31 2.861 3.616 4.822 5.695 7.071 1.533 1.658 3.77.603 4.88 2.392-.752 1.558-2.234 2.385-3.786 3zm-9.356-141.298c.588-1.203 1.47-.737 2.243.212 1.924 2.352 3.476 4.938 6.028 6.89 1.27.97 2.658.84 3.725 1.688.482.385 1.688.251 1.297 1.312-.167.461-.849.98-1.349 1.034-4.604.51-6.404 4.104-8.416 7.49-.488.818-1.1 1.576-1.513 2.43-1.018 2.107-1.827.628-1.985-.284-.8-4.626-3.64-7.278-7.813-8.945-1.028-.412-1.783-1.506-2.886-2.488 5.062-1.75 8.468-4.835 10.669-9.34zm12.726-22.403c-.118.85-.07 1.764-1.358 2.134-4.103 1.173-7.425 3.195-8.27 7.902-.152.837-1.034 1.688-2.107 1.743-1.313.073-.81-1.212-1.23-1.791-2.137-2.931-2.804-7.32-7.502-7.784-1.124-.11-1.27-.925-1.325-1.813-.048-.821-.312-1.67.8-2.115 3.947-1.567 6.717-4.283 8.196-8.336.503-1.388 1.4-1.036 2.103-.024.682.991 1.48 1.93 1.967 3.01 1.319 2.904 3.14 5.031 6.595 5.231 1.046.064 2.316.094 2.131 1.843zm-.673-30.674c-4.93.558-6.8 4.913-9.601 7.975-1.6 1.752-1.616 2.025-2.87-.312-1.619-3.013-4.183-5.678-7.31-7.23-2.271-1.124-1.832-1.282-.28-2.758 2.11-2.01 4.72-3.437 6.444-6.016.624-.934.821-1.676.994-2.592.151-.797-.11-1.882.976-2.073.86-.152 1.546.515 2.043 1.218 1.494 2.116 2.155 4.705 4.273 6.526 1.53 1.316 3.813 1.328 4.928 3.243.246.422 1.043.543 1.085 1.6-.097.065-.376.383-.682.42zm-19.064-36.372c3.492-1.213 5.332-3.823 6.792-6.905.625-1.319 1.946-2.289 2.465-.558 1.512 5.05 6.334 6.105 9.75 8.836.557.442 1.282.618 1.379 1.46-.218.837-.964.895-1.607 1.22-3.524 1.781-7.765 2.894-7.75 8.131.007 1.219-1.418 1.131-2.209 1.534-.991.51-1.479-.373-1.934-1.103-1.509-2.422-3.049-4.829-5.155-6.799-.615-.57-1.252-1.158-1.98-1.555-.954-.521-3.012.015-2.77-1.415.192-1.116 1.777-2.416 3.02-2.846zm-13.344 165.21c-4.347 1.167-7.014 3.907-8.472 8.084-.554 1.585-2.882 1.54-3.94.006-.33-.482-.566-1.03-.83-1.555-1.943-3.87-5.365-5.829-9.487-7.069 1.931-3.415 5.992-3.155 7.917-6.013.921-1.37 2.41-2.34 2.416-4.24.003-1.358.778-1.804 2.088-1.892 1.588-.109 1.797.821 1.885 1.995.279 3.713 2.38 5.789 5.862 6.783 1.003.285 1.924.955 2.803 1.564 1.264.87 1.194 1.952-.242 2.337zm-1.525 129.217c-3.052 2.179-6.522 4.122-6.98 8.517-.085.806.279 2.17-1.243 2.191-.94.016-2 .03-2.288-1.255-1.285-5.698-5.164-8.814-10.732-10.411 1.885-3.41 5.934-3.122 7.88-5.95 1.003-1.461 2.492-2.525 2.585-4.54.064-1.37 1.213-1.643 2.352-1.77 1.152-.131 1.292.63 1.543 1.527 1.03 3.67 2.743 6.768 6.771 7.98 1.076.322 2.697.628 2.743 1.992.048 1.543-1.791 1.122-2.63 1.719zm-12.426-39.868c1.14-.436 1.294-1.679 1.427-2.767.167-1.328 1.143-1.367 2.13-1.452 1.095-.094 1.638.26 2.09 1.422 1.436 3.704 3.985 6.395 7.913 7.544.621.182 1.221.379 1.273 1.058.051.67-.482.964-1.07 1.258-1.452.724-2.989 1.39-4.228 2.4-2.028 1.65-4.225 3.289-4.043 6.423.045.77.045 1.846-1.198 1.849-.979.006-2.115-.11-2.421-1.206-1.522-5.48-5.783-8.184-10.714-10.943 4.37.18 5.525-4.319 8.84-5.586zm-7.341-58.499c-.024-1.097.255-1.719 1.497-2.016 3.825-.912 6.156-3.555 7.299-7.174.427-1.349 1.163-1.628 2.33-1.734 1.334-.124 1.464.703 1.791 1.713 1.14 3.491 3.386 6.077 6.987 7.11 1.26.361 1.979.743 1.827 2.07.143 1.152-.203 1.725-1.437 2.056-3.876 1.045-6.404 3.598-7.434 7.499-.264 1-.697 1.476-1.722 1.379-.97-.094-1.894-.116-2.233-1.373-1.091-4.038-3.674-6.638-7.768-7.614-1.146-.273-1.116-1.03-1.137-1.916zm7.565 26.228c.964-1.07 1.027-2.074 1.24-3.147.27-1.348 1.163-1.324 2.142-1.409 1.119-.097 1.704.212 2 1.473.95 4.047 3.865 6.238 7.63 7.441.724.23 1.578.434 1.742 1.085.236.961-.6 1.437-1.418 1.81-.861.397-1.64.997-2.522 1.325-3.016 1.115-5.152 2.897-5.446 6.359-.097 1.142-.073 2.491-1.986 2.343-1.34-.11-1.888-.628-2.115-1.922-.615-3.54-3.119-5.48-6.168-6.856-1.555-.703-2.943-1.564-4.098-3.304 3.759-.63 6.547-2.473 8.999-5.198zm1.625-99.998c.788-1.312 2.803-1.667 3.803.81 1.434 3.552 3.94 6.189 7.699 7.39.727.233 1.557.572 1.49 1.239-.063.649-.957.86-1.67 1.13-3.609 1.374-6.173 3.883-7.57 7.524-.597 1.555-3.158 2.088-3.946.651-2.383-4.35-5.726-7.523-10.848-9.308 4.843-2.258 8.465-5.14 11.042-9.436zm-3.75-26.903c1.831-.743 1.607-3.562 3.204-5.114.867-.845 1.512-1.245 2.564-1.355 1.61-.16 1.352 1.143 1.837 2.055 1.655 3.116 3.761 5.899 7.434 6.881.834.221 1.795.367 1.864 1.33.073.964-.821 1.316-1.636 1.653-.761.315-1.4.933-2.17 1.203-3.165 1.103-5.365 2.955-5.647 6.556-.082 1.025-.048 2.264-1.737 2.149-1.175-.082-2.021-.206-2.276-1.68-.651-3.779-3.306-5.913-6.622-7.292-1.51-.63-2.597-1.643-4.216-3.419 3.476.182 5.107-2.034 7.401-2.967zm16.343-28.74c-.085 1.048.006 2.14-1.425 2.576-3.907 1.197-6.628 3.594-7.595 7.753-.282 1.206-.443 1.17-1.84 1.158-1.045.024-1.758-.194-2.079-1.452-.997-3.9-3.558-6.41-7.426-7.444-1.27-.337-1.348-1.119-1.466-2.11-.152-1.233.424-1.615 1.56-1.91 3.768-.978 6.226-3.497 7.253-7.183.397-1.415 1.1-1.622 2.273-1.688 1.21-.067 1.595.47 1.889 1.615.963 3.783 3.582 6.068 7.207 7.238.824.267 1.746.261 1.649 1.446zm-20.837-34.152c3.86-1.451 6.2-4.385 7.883-8.005.506-1.1.612-1.048 1.373-1.07 1.67.182 2.894.452 3.164 2.42.491 3.603 2.425 6.107 6.337 6.231 1.977.064 2.386 1.2 2.637 2.728.306 1.882-1.115 1.728-2.24 1.934-3.706.676-5.028 3.828-6.64 6.583-.673 1.146-.794 2.458-2.68 2.268-1.627-.167-1.697-1.216-2.154-2.374-1.255-3.146-3.695-5.231-6.786-6.498-.858-.352-2.05-.146-2.113-1.483-.051-1.076-.103-2.236 1.219-2.734zm-11.745 261.75c-3.406-.503-4.564 1.918-5.98 4.189-.812 1.306-1.96 2.4-2.806 3.688-1.673 2.547-3.45 1.286-4.107-.384-1.71-4.332-4.25-7.245-9.15-7.59-.497-.034-.958-.603-1.649-1.064 5.99-2.025 10.096-5.41 12.42-10.757.282-.649.158-1.455 1.113-1.55.676-.06 1.227.24 1.342.916.913 5.332 5.207 7.48 9.248 9.87.585.345 1.518.345 1.433 1.336-.097 1.112-1.179 1.446-1.864 1.346zm-.836 32.708c-4.831 1.655-7.865 4.746-8.384 10-.027.302-.37.575-.69 1.039-1.537-1.33-2.559-2.943-3.183-4.698-1.218-3.413-3.38-5.662-6.956-6.46-.785-.175-1.873-.008-1.818-1.257.048-1.07.094-2.27 1.51-2.565 4.212-.863 6.36-3.88 7.891-7.54.434-1.04 1.067-2.18 2.198-2.086 1.345.112 1.082 1.588 1.41 2.573 1 3.016 3.545 4.723 5.858 6.614.836.688 1.694 1.349 2.533 2.03 1.216.989 1 1.877-.37 2.35zm-13.57-71.915c1.38-1.224 1.004-3.028 2.453-4.15 1.636-1.27 2.348-1.263 3.058.719 1.354 3.78 3.912 6.414 7.792 7.65 1.724.546 1.715 1.355.415 2.416-.56.455-1.048 1.267-1.658 1.355-4.167.621-5.107 4.304-6.831 7.162-.785 1.304-1.112 1.113-2.237.355-1.724-1.16-1.643-3.267-3.058-4.64-2.54-2.462-5.643-3.79-9.417-5.508 3.877-1.482 6.856-3.01 9.484-5.359zm13.682-89.695c-4.28 1.346-7.056 4.132-8.383 8.418-.161.515-.519 1.24-1.222 1.118-1.155-.2-2.037-1.134-2.34-2.07-.854-2.646-2.964-4.077-4.713-5.953-.994-1.064-1.867-1.267-2.967-1.422-1.024-.145-2.473-.179-2.46-1.215.005-.743 1.348-2.037 2.17-2.098 2.685-.203 3.848-2.297 5.458-3.813 1.273-1.197 2.803-2.26 2.815-4.4.006-.983.98-1.738 1.886-1.974.951-.249 1.088.96 1.194 1.446.957 4.3 4.322 6.432 7.562 8.696.836.59 2.127.694 2.267 2.297-.364.288-.758.813-1.267.97zm-21.125 30.699c.009-.913.124-1.695 1.249-1.85 4.176-.566 6.334-3.46 7.862-6.98.5-1.145 1.051-2.494 2.224-2.585 1.67-.13 1.173 1.676 1.685 2.637 1.567 2.934 3.759 5.459 6.92 6.62 1.467.542 1.827 1.176 1.891 2.518.079 1.643-1.182 1.346-2.085 1.825-3.137 1.667-5.85 3.85-6.844 7.505-.23.84-.421 1.613-1.418 1.88-1.007-.486-1.667-1.201-2.18-2.238-1.742-3.507-3.57-6.99-8.134-7.456-1.164-.118-1.176-.982-1.17-1.876zm1.258 30.677c3.855-.849 6.019-3.513 7.586-6.932.527-1.152 1.355-2.585 2.797-2.488 1.295.084.894 1.785 1.422 2.576 1.849 2.77 3.861 5.486 7.177 6.705.648.24 1.53.024 1.736.945.204.882-.554 1.134-1.097 1.616-2.246 1.997-4.585 3.886-6.737 6.017-1.27 1.254-.691 2.721-1.634 3.725-.388.415-.167 1.264-1.227 1.364-.416-.361-1.304-.746-1.422-1.298-1.106-5.07-5.65-7.023-9.001-10.03-.455-.406-1.085-.63-.985-1.315.106-.73.79-.752 1.385-.885zm6.322-100.604c1.279-1.188.97-3.112 2.507-4.176 1.106-.767 2.273-1.222 2.53.166.949 5.126 5.532 6.275 8.947 8.724.285.203.47.545.843.99-2.07.62-3.234 2.408-5.186 3.323-1.9.891-3.958 2.446-4.23 5.047-.101.933-.465 1.71-1.347 1.936-1 .258-1.327-.894-2.03-1.273-1.516-.812-.894-2.664-2.252-3.855-2.667-2.352-5.804-3.659-9.126-5.359 3.51-1.546 6.689-3.061 9.344-5.523zm-.021-32.447c1.16-1.267.712-2.934 2.091-3.977 1.46-1.1 2.37-2.158 3.292.47 1.327 3.78 3.955 6.38 7.798 7.705 1.54.53 2.576 1.588.633 2.661-4.234 2.337-7.64 5.214-9.195 10.027-.755 2.328-2.043.043-2.164-.297-1.898-5.31-5.922-8.387-10.78-10.66-.189-.088-.283-.38-.601-.837 3.592-.724 6.444-2.382 8.926-5.092zm-4.192-28.522c1.788-.43 2.255-1.961 3.255-3.016.773-.818 1.197-1.973 1.73-3 .64-1.24 2.129-2.232 2.895-2.586 2.446-1.137 1.152 1.727 1.946 2.588 2.055 2.219 3.67 5.092 6.726 5.965 3.236.925 1.96 2.559.72 3.78-1.624 1.6-3.754 2.674-5.476 4.186-1.712 1.503-2.467 3.7-3.473 6.25-3.207-3.646-5.207-7.493-9.056-9.781-2.052-1.219-1.522-3.847.733-4.386zm-23.398 77.561c-.445 1.428-1.027 1.05-1.843-.06-1.348-1.84-2.127-3.977-3.573-5.805-1.958-2.47-5.51-2.494-6.847-5.459 3.71-1.548 7.299-4.185 9.317-7.801 2.016-3.61 1.846-5.387 4.122-.022 1.667 3.926 6.113 6.308 10.438 8.13-5.143 2.415-9.801 5.195-11.614 11.017zm-.93 130.372c-2.104-6.79-7.099-10.087-13.675-12.667 3.579-.873 6.313-1.864 8.325-4.05 1.97-2.136 4.02-4.237 5.244-7.483 2.688 5.577 6.31 9.575 12.241 11.585-5.58 2.803-10.241 6.235-12.135 12.615zm-9.987 18.662c1.252-1.421 3.204-1.524 4.431-2.78 2.328-2.379 3.974-5.21 5.504-9.426 1.97 5.986 5.092 9.79 9.926 12.146 1.176.572.928 1.745-.133 2.255-4.613 2.224-7.674 5.816-9.42 10.872-1.625-1.934-2.958-3.331-3.698-5.556-.821-2.473-3.53-3.898-5.98-4.889-1.842-.746-1.9-1.185-.63-2.622zm19.958 35.015c-4.525.712-6.934 3.855-8.698 7.638-.361.78-.528 1.852-1.361 1.907-1.24.075-.785-1.213-1.046-1.931-.91-2.51-6.62-7.532-9.204-7.514-.407.13-1.525.29-2.443.81-2.467 1.384-4.61 1.336-7.092-.286-2.992-1.955-5.423-.033-6.835 2.413-1.346 2.34-3.892 3.419-5.122 5.79-.403.781-1.519.915-1.861-.331-1.152-4.18-4.628-6.21-7.874-8.33-2.104-1.37-1.203-2.9-.212-3.752.848-.73 1.803-1.803 2.849-2.061 3.476-.852 3.685-4.168 5.213-6.462.363-.549.182-1.482 1.221-1.407.821.064 1.261.637 1.558 1.331 1.085 2.53 2.097 5.059 4.352 6.908 2.41 1.976 4.225 1.849 5.71-.752 1.504-2.634 3.689-4.443 6.495-5.526.867-.336 1.75-1 2.216.613.358 1.242.412 2.03-1.07 2.434-1.679.451-3.016 1.506-4.158 2.803-.812.925-.903 1.98-.41 3.04.489 1.043 1.731 1.48 2.45 1.019 3.56-2.285 8.559-1.955 11.126-5.853 1.064-1.616 1.724-3.507 3.134-4.916 1.051-1.055 1.903-1.1 2.215.585.621 3.364 2.546 4.734 5.92 3.961.233-.054.545-.267.672-.182.48.319 1.334.846 1.27 1.095-.76 2.967 3.246 3.455 3.058 5.98-.088 1.164-1.315.858-2.073.976zm-52.621-35.057c1.415-1.831 3.8-1.758 5.386-3.631 2.958-3.507 3.303-3.213 4.34-7.56 2.803 5.674 6.925 9.915 13.508 12.994-4.33.391-6.683 2.686-9.017 5.059-1.176 1.2-1.67 2.755-2.536 4.104-.4.618-.916 1.146-1.755 1.064-1-.103-.752-1.006-1.073-1.58-1.952-3.464-4.328-6.61-8.314-7.87-2.103-.665-1.588-1.228-.54-2.58zm8.971-40.944c.758-1.885 2.21-.967 2.637.122.964 2.46 2.74 4.373 4.528 5.959 1.749 1.542 3.98 2.846 7.568 3.497-6.07 2.125-9.987 5.183-12.375 10.027-.24.491-1.482 1.898-1.821.634-1.516-5.668-7.22-6.941-10.817-10.888 5.11-1.628 8.404-4.68 10.28-9.35zm-7.704-56.696c3.664-2.012 6.792-4.382 7.75-8.741.12-.552.445-.88.963-.87.97.015 1.388.676 1.804 1.497 1.064 2.11 1.594 4.532 3.628 6.108 1.036.8 1.803 1.928 3.337 1.906 1.312-.018 1.512.955 1.5 2.013.06 1.012.033 1.913-1.285 2.182-3.252.68-5.113 2.72-5.95 5.935-.285 1.097-1.079 2.143-1.864 3.013-.733.812-1.655.988-2.14-.427-1.37-3.974-3.97-6.766-7.774-8.642-2.227-1.097-2.009-2.852.03-3.974zm-.106 32.466c3.327-1.846 6.358-4.304 7.728-8.056.843-2.304 2.022-1.58 2.667-.307 1.964 3.877 4.901 6.72 8.462 9.057 1.07.703 1.492 1.404-.078 2.273-3.87 2.15-7.462 4.614-8.314 9.473-.09.5-.66.918-.93 1.27-.955.087-1.352-.44-1.543-.976-1.549-4.347-4.431-7.593-8.195-10.124-1.54-1.034-1.773-1.516.203-2.61zm8.492-74.891c2.522 6.156 7.662 9.484 13.93 13.04-6.51.89-9.408 4.57-11.769 8.844-.442.797-.888 1.482-1.852 1.425-1.255-.073-.724-1.31-1.136-1.895-2.54-3.604-5.147-7.186-10.342-8.32 3.625-4.54 11.008-5.523 11.169-13.094zm12.95-20.063c-5.076 1.928-8.58 4.993-10.895 9.533-.627 1.234-2.049 2.134-2.78.015-1.454-4.225-4.918-6.283-8.467-8.278-.61-.345-1.398-.488-1.489-1.242-.033-.282.564-.8.973-.958 4.792-1.825 7.783-5.414 9.769-10.127 4.03 4.104 6.546 9.7 12.89 11.057zm-13.623-42.168c.946-2.052 2.13-.988 2.755.252 1.413 2.792 3.631 4.801 5.747 7.005 1.14 1.188 2.443.745 3.421 1.494.522.4 1.625.23 1.537 1.185-.07.743-.712 1.137-1.506 1.294-4.94.992-7.256 4.977-9.747 8.715-.364.536-.164 1.57-1.119 1.57-1.264-.003-.945-1.137-1.118-1.892-.737-3.206-3.231-5.222-5.71-6.659-1.707-.991-3.113-2.025-4.634-3.68 5.264-1.551 8.322-4.828 10.374-9.284zm-7.259-24.296c3.316-2.01 6.283-4.329 7.29-8.393.445-1.8 1.49-1.231 2.345-.322.47.503.876 1.173 1.052 1.834 1.079 4.013 4.043 5.944 7.698 7.168.44.149.907.319.943 1.004-.973.676-.455 2.61-1.755 2.84-4.358.776-5.762 4.213-7.301 7.59-.394.86-.612 1.94-1.791 2.012-1.586.103-.967-1.297-1.322-2.06-1.558-3.362-4.273-5.578-7.34-7.497-2.262-1.415-2.122-2.776.181-4.176zm40.05 152.667c.718-1.464 1.84-.02 1.96.698.78 4.589 5.156 5.601 8.02 7.992 1.558 1.3 1.53 1.51.237 2.798-2.307 2.3-5.15 3.968-7.165 6.671-1.043 1.404-.449 3.456-2.652 4.596-1.164-7.245-7.871-8.948-13.148-12.989 6.665-.624 10.18-4.513 12.748-9.766zm11.041-21.747c-.003.857.003 1.64-1.06 2.021-4.04 1.455-6.778 4.174-8.045 8.348-.145.476-.763 1.06-1.227 1.127-.791.113-.627-.794-.897-1.276-2.076-3.67-4.522-6.98-8.829-8.268-.912-.273-1.991-.219-1.964-1.616.027-1.237.482-1.882 1.81-2.246 4.403-1.188 6.85-4.634 8.995-8.323.279-.476.16-1.373.943-1.216.466.094 1.048.71 1.179 1.198 1.118 4.234 3.967 6.792 7.904 8.28 1.027.388 1.146 1.104 1.191 1.97zm-.555-30.723c-5.034.567-5.961 5.12-8.395 8.205-.436.549-.649 1.373-1.488 1.328-.797-.043-.56-.934-.87-1.367-2.655-3.698-4.922-7.866-10.938-8.718 5.592-3.473 9.94-7.083 12.032-13.115 1.682 5.344 5.51 8.608 9.741 11.545.997.694 1.252 1.97-.082 2.122zm-17.466-67.68c2.688-2.183 5.282-4.653 6.655-7.85.967-2.253 1.528-1.247 2.304-.198 1.621 2.189 3.134 4.456 4.743 6.656.74 1.013 1.749 1.561 3.082 1.598 1.067.03 1.94.924 2.083 1.749.163.93-1.104.86-1.776 1.24-3.786 2.14-7.032 4.813-8.214 9.299-.14.527-.618.97-1.158 1.776-2.252-4.238-3.491-8.557-8.177-10.24-1.14-.408-2.68-1.566-2.558-2.779.13-1.345 2.234-.615 3.016-1.251zm-.349-32.566c2.8-2.164 5.522-4.477 7.104-7.763.288-.597.028-1.67 1.067-1.503.685.11.991.891 1.252 1.622 1.349 3.795 3.934 6.42 7.75 7.747.788.273 1.34.585 1.236 1.461-.109.918.173 2.11-.957 2.54-4.146 1.588-6.998 4.356-8.308 8.66-.127.412-.594.724-.851 1.021-.682-.042-.913-.364-1.055-.897-1.091-4.025-4.468-6.186-7.456-8.475-1.146-.879-1.594-1.591-1.676-2.8-.091-1.413 1.233-1.1 1.894-1.613zm-51.585 200.274c-.92 1.206-2.209 2.006-2.6 3.758-.424 1.913-2.988 2.31-3.522 1.061-1.064-2.482-3.11-3.877-4.61-5.829-1.545-2.01-4.085-2.346-6.495-4.061 5.189-1.707 8.39-4.865 10.763-9.024 1.103-1.93 3.07-.876 3.528.1 2.079 4.44 5.546 7.187 10.55 9.142-3.219 1.324-5.82 2.497-7.614 4.853zm4.583 28.943c-3.358 1.3-5.383 3.962-7.101 6.932-1.485 2.567-2.422 2.31-4.346.064-2.75-3.21-5.116-7.09-10.087-7.635 2.082-3.62 6.44-3.444 8.408-6.541.757-1.192 1.982-2.028 2-3.677.012-1.03.057-2.264 1.755-2.104 1.282.122 1.997.734 2.197 1.97.667 4.092 3.058 6.46 7.044 7.524 1 .27 2.546.657 2.582 2.17.04 1.797-1.58.96-2.452 1.297zm-.385 32.69c-3.061 1.185-5.28 3.361-6.51 6.35-.534 1.3-.688 2.613-2.385 2.434-1.43.26-1.6-.552-1.922-1.606-1.118-3.68-3.57-6.172-7.295-7.263-.87-.251-1.719-.34-1.58-1.512.131-1.067.17-2.104 1.589-2.507 3.88-1.103 6.359-3.701 7.362-7.599.27-1.049.74-1.4 1.749-1.315 1.154.097 2.13.266 2.249 1.76.33 4.165 2.61 6.511 6.75 7.111 1.354.2 2.12 1.04 2.218 2.462.121 1.74-1.297 1.324-2.225 1.685zm-20.646-99.537c.285-.718 1.182-.64 1.903-.77 4.095-.745 6.441-3.522 7.869-7.159.366-.936.333-1.982 1.688-1.782.997.142 2.112-.079 2.491 1.482.967 3.956 3.737 6.241 7.483 7.526.734.252 1.394.722 2.104 1.094-.6 1.75-2.198 2.528-3.316 2.734-3.934.725-4.816 3.992-6.19 6.784-.563 1.14-.736 2.103-2.287 2.234-1.986.166-1.686-1.267-1.94-2.35-.758-3.191-3.119-4.904-5.783-6.355-.93-.504-1.958-.898-2.746-1.574-.548-.466-1.682-.845-1.276-1.864zm22.783-31.38c.088 1.088-.212 1.676-1.458 2.016-3.843 1.051-6.468 3.53-7.425 7.459-.38 1.552-1.495 1.33-2.504 1.464-1.127.145-1.327-.624-1.53-1.543-.867-3.886-3.64-6.09-7.153-7.29-1.304-.448-1.73-.872-1.73-2.17-.004-1.427.748-1.679 1.939-2.03 3.597-1.058 5.777-3.674 6.937-7.148.27-.803.194-1.782 1.382-1.691 1.043.076 2.204-.01 2.604 1.415 1.124 4.01 3.664 6.638 7.762 7.605 1.14.273 1.149 1.052 1.176 1.913zm-1.873-30.517c-2.819 1.843-6.247 3.222-6.935 7.123-.212 1.225-.915 1.573-1.964 1.685-.845.088-1.59.237-2.097-.818-2.088-4.37-4.422-8.514-10.493-8.547 2.295-3.717 6.426-3.592 8.405-6.554.86-1.288 2.097-2.258 2.11-4.004.005-.957.114-2.003 1.563-1.894 1.143.085 2.219.21 2.316 1.682.3 4.571 3.5 6.438 7.22 7.92.933.373 2.39.628 2.345 1.925-.052 1.413-1.676.96-2.47 1.482zm-12.85-39.946c1.602-1.173.836-4.201 3.788-4.092 2.843.11 1.99 2.904 3.346 4.162 2.506 2.325 5.443 3.952 8.653 6.183-4.94 1.758-8.293 4.447-10.184 8.936-.57 1.348-2.816 1.852-3.58.39-2.315-4.43-5.655-7.507-11.532-9.608 4.786-.842 6.74-3.95 9.508-5.971zm1.875-69.16c.618-1.676 1.522-.315 2.104.267 2.176 2.161 3.355 5.123 6.092 6.957.924.62 1.69 1.4 2.849 1.567 1.003.148 1.957.24 1.845 1.655-.094 1.17-.37 1.979-1.71 2.394-3.657 1.14-6.3 3.48-7.21 7.311-.354 1.491-1.312 1.516-2.394 1.625-1.388.14-1.491-.834-1.652-1.846-.536-3.38-3.324-5.199-5.764-6.644-1.7-1.01-2.992-2.216-4.646-3.359 4.806-2.246 8.659-4.968 10.486-9.926zm13.46 42.663c.167.967-.976 1.164-1.524 1.724-1.416 1.455-3.701.988-5.032 2.622-1.273 1.564-3.112 2.68-2.93 5.126.1 1.394-.688 2.121-2.21 2.224-1.682.119-1.624-.988-1.834-2.052-.66-3.38-3.064-5.261-5.93-6.65-1.638-.794-3.238-1.552-4.186-3.246 1.26-1.561 3.358-.864 4.919-1.94 2.43-1.673 3.703-4.14 5.046-6.49.676-1.184 1.115-1.606 2.37-1.448 1.091.136 1.619.53 1.934 1.7 1.027 3.807 3.819 5.98 7.398 7.214.8.273 1.828.303 1.98 1.216zm-33.9-31.023c-3.622 2.346-7.44 4.489-8.395 9.342-.249 1.266-1.216 1.085-2.082.042-1.716-2.055-2.852-4.556-4.977-6.299-1.027-.842-1.885-1.842-3.385-1.83-1.664.015-2.289-.943-2.28-2.543.006-1.719 1.37-1.577 2.316-1.589 3.376-.048 4.389-3.028 6.056-4.989.685-.806 1.348-1.806 2.021-2.725.479-.651.555-1.743 1.646-1.533 1.094.203.69 1.37 1.04 2.058 1.582 3.158 3.87 5.707 7.195 7.071.89.367 1.827.446 2.221 1.437-.136.867-.751 1.152-1.376 1.558zm-.773 32.999c-3.8 1.03-5.652 3.992-7.395 7.135-1.294 2.337-3.091 1.294-3.98-.042-2.272-3.423-4.488-6.708-8.819-7.781-.552-.14-.921-1.019-1.373-1.555.536-.26 1.052-.67 1.615-.752 4.428-.655 6.871-3.513 8.623-7.347.458-1 1.243-2.355 2.598-2.216 1.315.137.988 1.71 1.497 2.546 1.752 2.859 3.873 5.486 7.143 6.73.91.348 1.84.42 2.174 1.427-.21 1.252-1.207 1.618-2.083 1.855zm-.72 64.561c-2.671 1.789-5.223 3.82-6.58 6.88-.32.716.035 1.838-1.092 2.007-1.021.152-1.964-.27-2.346-1.294-1.894-5.068-6.55-6.69-10.768-8.754.903-2.73 3.912-2.385 5.722-3.9 2.491-2.086 4.019-4.908 6.131-7.266 1.061-1.188 1.628-1.4 2.146.318 1.118 3.698 2.522 7.087 6.859 8.226.96.252 2.646.713 2.63 2.12-.015 1.609-1.836 1.081-2.703 1.663zm1.157 96.063c-2.85 2.531-7.39 3.31-8.056 8.181-.218 1.6-1.725 1.313-2.734.173-3.325-3.762-6.453-7.75-11.39-9.42.925-2.138 2.973-1.213 4.44-2.162 3.016-1.94 4.337-5.065 6.695-7.386 1.516-1.492 2.504-1.758 3.274.6 1.221 3.746 3.903 6.15 7.498 7.529.715.276 1.588.512 1.673 1.149.091.672-.906.9-1.4 1.336zm-.53 32.687c-3.34.97-5.338 3.862-7.165 6.665-.461.704.124 2.089-1.213 2.301-1.255.2-2.306-.779-2.594-1.634-1.73-5.14-6.607-6.235-10.55-8.556 1.542-2.98 5.38-2.616 7.425-5.226 1.388-1.776 2.197-4.64 4.674-5.083 3.443-.621 1.99 3.328 3.682 4.807 1.976 1.731 4.561 2.05 6.362 3.838 1.427 1.412 2.067 2.103-.622 2.888zm.012 32.538c-3.886.928-5.692 4.026-7.271 7.257-.349.709-.085 1.743-1.58 1.697-.815-.882-1.8-1.852-2.67-2.913-2.1-2.555-3.567-5.85-7.498-6.168-.842-.067-1.376-.473-1.26-1.382.102-.821.042-2.037.981-2.155 5.08-.649 6.804-5.107 9.556-8.326 1.48-1.731 1.892-1.428 2.42.524 1.005 3.734 3.494 6.205 7.14 7.317 1.564.479 1.697 1.512 1.818 2.71.121 1.19-.776 1.236-1.636 1.44zm-19.543-132.556c5.319-.243 6.97-4.868 9.674-8.075 1.658-1.958 1.688-1.661 2.634.44 1.491 3.31 3.182 6.768 7.492 7.347 1.373.181 1.288 1.188 1.3 2.164.085.933-.106 1.624-1.224 1.812-4.337.743-6.159 4.101-7.647 7.654-.694 1.652-1.085 1.849-2.388.457-2.028-2.173-3.131-5.028-5.92-6.75-1.115-.688-2.17-1.088-3.318-1.406-.821-.227-1.303-.588-1.27-1.446.03-.803-.282-2.158.667-2.197zm6.898 28.019c1.21-1.283.8-2.892 1.855-4.05.557-.61 1.04-1.685 1.752-1.567.633.11 1.385 1.055 1.612 1.776 1.324 4.165 4.08 6.811 8.177 8.163 1.561.518 1.382 1.243.3 2.219-2.34 2.118-5.004 3.819-7.237 6.15-1.094 1.142-.446 4.31-3.24 3.54-1.861-.512-1.98-2.795-3.234-3.995-1.773-1.697-3.3-3.743-5.85-4.392-1.41-.364-2.106-1.48-3.16-2.75 3.788-.575 6.53-2.451 9.025-5.094zm-9.76-90.732c5.771-1.58 8.569-5.762 11.872-9.332 1.45-1.568 2.528-1.755 3.27.575 1.213 3.807 4.05 6.056 7.557 7.536.7.29 1.645.551 1.642 1.157-.006.867-.99 1.028-1.791 1.328-3.5 1.319-6.08 3.77-7.332 7.275-.872 2.455-1.724 2.558-3.388.76-3.291-3.561-6.116-7.69-11.83-9.299zm-18.909 11.894c-2.679-6.005-7.022-9.818-13.402-11.909 3.57-1.525 6.747-2.792 9.195-5.368 1.57-1.649 1.931-3.92 3.344-5.647.83-1.015 1.709-1.443 1.918-.042.906 6.053 5.928 8.129 10.602 11.281-5.243 2.61-9.905 5.61-11.657 11.685zm.018 105.462c2.492 4.556 5.004 8.472 9.639 10.448 1.5.643 1.442 1.846-.03 2.683-2.65 1.5-4.829 3.428-6.98 5.64-1.598 1.643-.658 4.035-3.035 5.299-1.624-6.641-6.6-10.124-12.68-12.773 6.998-.649 9.446-6.465 13.086-11.297zm-10.344-54.765c4.874-.985 7.256-4.7 9.396-8.66.218-.406.194-.957.933-1.057.613.012.988.579 1.14 1.11 1.2 4.237 4.061 6.889 8.047 8.404 1.097.418 1.048 1.173 1.064 2.004.015.851.024 1.594-1.061 2.006-3.983 1.522-6.847 4.162-8.05 8.402-.146.516-.488 1.152-1.234 1.116-.612-.034-.603-.616-.821-1.028-2.128-4.095-4.764-7.638-9.638-8.696-.934-.2-.973-.918-.964-1.682.012-.891.064-1.691 1.188-1.919zm21.046 33.893c.082 1.298-1.421 1.483-2.318 1.98-4.128 2.297-6.526 5.99-8.35 11.163-2.058-5.865-6.07-8.657-9.693-11.742-1.058-.9-2.23-1.846-.476-2.57 5.186-2.137 8.03-6.278 10.62-11.276.252 4.153 2.474 6.971 5.435 9.317.651.519 1.264 1.228 2.012 1.446 1.134.325 2.67.13 2.77 1.682zm-2.027-62.536c-3.392 1.249-5.68 3.81-7.214 6.98-.403.83-.375 2.165-1.373 2.255-1.309.122-2.349-1.17-2.582-2.182-.927-4.034-3.992-5.686-7.28-7.262-1.324-.637-1.724-1.2-.097-2.431 2.43-1.837 4.446-4.22 6.665-6.344 1.388-1.328 2.53-2.792 3.085-4.898 1.725 3.055 3.219 5.937 5.695 8.32 1.082 1.04 2.461 1.276 3.489 2.28.651.636 1.903.878 1.621 2.012-.19.767-1.188.967-2.01 1.27zm2.067 127.72c-.155 1.024-.964.836-1.637 1.003-3.795.94-5.916 3.803-7.62 6.98-.427.8-.393 2.122-1.339 2.316-1.188.251-2.146-.964-2.416-1.837-1.676-5.386-5.77-7.553-11.799-8.42 6.565-2.97 12.1-5.832 13.93-12.855 1.9 5.153 5.183 8.735 9.956 11.009.655.312 1.052.958.925 1.803zm-2.522 33.701c-3.016 2.234-6.537 4.105-7.031 8.472-.076.676-.449 1.316-.685 1.97-1.298-3.813-4.262-6.004-6.499-8.699-.948-1.14-2.103-1.906-3.694-1.96-.752-.028-1.849.084-1.888-1.168-.03-1.021.276-1.934 1.351-2.322 4.544-1.651 7.41-4.973 9.417-9.235.773-1.64 1.67-.56 1.87.306.991 4.307 4.001 6.726 7.68 8.542 1.176.575 1.464 1.6 1.525 2.664.079 1.434-1.385.94-2.046 1.43zm-19.17-294.53c3.407-1.955 7.483-3.23 8.423-7.917.197-.979 1.5-1.076 2.303-1.458.78-.112 1.282.234 1.37.897.582 4.483 3.967 6.73 7.171 9.14.576.436 1.094.95 1.606 1.46 1.35 1.343.988 1.813-.833 2.158-3.737.71-5.601 3.856-7.601 6.617-.597.824-.137 2.755-1.67 2.646-1.273-.088-2.383-1.449-2.592-2.737-.536-3.277-3.04-4.928-5.431-6.31-1.115-.646-2.082-1.47-3.128-2.165-1.273-.842-.958-1.56.382-2.33zm-.6 34.394c-.07-.855.294-1.413 1.176-1.48 5.27-.409 6.695-5.131 9.386-8.41.33-.404.21-1.353.985-1.18.47.103 1.073.703 1.186 1.185 1.018 4.314 3.982 6.672 7.861 8.275 2.168.897 1.68 3.037.376 3.613-4.255 1.88-7.316 4.562-8.465 9.172-.121.488-.273.967-.273.967-1.597-.4-1.4-1.164-1.69-1.63-2.268-3.65-4.544-7.333-9.202-8.315-1.33-.282-1.261-1.246-1.34-2.197zm2.743 30.734c3.534-1.2 5.72-4.455 7.677-7.595.342-.552.088-1.622 1.112-1.519.737.076 1.1.767 1.355 1.504 1.358 3.949 3.925 6.653 8.017 7.895 1.324.407 2.297 1.68.575 2.531-4.83 2.389-7.877 6.226-9.88 12.106-2.073-5.753-6.044-8.471-9.383-11.724-1.364-1.327-2.637-2.125.527-3.198zM484.88 482.132c-.655 1.234-1.798 1.95-2.74-.266-1.625-3.832-4.289-6.835-8.396-8.142-2.36-.751-1.394-1.634-.294-2.61 2.331-2.067 5.253-3.173 7.329-5.898 1.327-1.746.93-3.534 2.688-6.162 1.625 7.362 7.083 10.272 13.527 13.73-6.683 1.043-9.705 4.78-12.114 9.348zm-10.066 20.214c2.122-2.018 5.098-2.96 6.474-6.025.615-1.373.721-3.05 2.203-4.498 1.152 2.746 1.834 5.58 4.274 7.465 1.588 1.225 2.673 3.034 5.08 3.07 1.221.019 2.19 1.019 2.27 2.434.097 1.777-1.458 1.47-2.334 1.525-3.392.215-4.962 2.528-6.328 5.132-.61 1.16-.992 2.464-1.719 3.537-.649.958-1.794 1.66-2.394-.027-1.446-4.098-4.64-6.45-8.047-8.718-2.219-1.479-.721-2.712.521-3.895zm19.946 36.658c-4.407 1.034-6.913 3.94-8.517 8.026-.406 1.04-1.885 1.658-3.455 2.95-.451-6.475-5.225-8.836-8.865-12.137-.649-.588-1.882-1.076-1.524-2.164.275-.84 1.54-.546 2.182-.919 3.385-1.952 6.192-4.516 7.686-8.268.294-.74-.01-1.746 1.115-2.295 1.064 1.983 2.092 3.98 3.195 5.938 1.194 2.113 2.621 4.21 5.18 4.547 1.69.218 2.3 1.603 3.503 2.297 1.022.594.885 1.7-.5 2.025zm-11.426 16.034l-.097-.248.221.012-.124.236zm-10.096-116.144c4.319-1.636 7.044-4.792 9.074-8.814.888-1.755 2.158-.694 2.72.379 2.345 4.465 5.545 7.863 10.822 9.36-6.016 2.455-10.286 6.46-12.723 12.697-.561-3.634-2.604-6.053-5.047-8.369-1.49-1.412-3.806-1.176-4.964-3.137-.56-.949-1.267-1.591.118-2.116zm19.38-93.88c-3.338 1.452-6.075 3.546-7.22 7.24-.312 1.007-.706 2.177-2.1 2.107-1.513-.072-.734-1.545-1.231-2.2-2.107-2.761-4.219-5.674-7.453-7.123-2.264-1.012-1.979-1.325-.321-2.767 2.17-1.886 4.455-3.644 6.443-5.847 1.537-1.7.955-3.553 2.313-5.544 1.84 2.391 2.534 5.107 4.664 6.956 1.558 1.355 2.543 3.289 4.935 3.589 1.006.124 1.536 1.258 1.633 2.182.103.982-.9 1.073-1.664 1.407zm2.585 62.846c-5.759 2.3-9.317 6.653-12.19 12.76-1.586-5.683-4.629-9.135-8.526-11.851-1.982-1.38-1.982-1.646.318-2.922 3.176-1.764 6.156-4.265 7.383-7.972.682-2.06 1.513-1.255 2.091-.27 2.583 4.408 6.793 7.039 10.924 10.255zm-1.867-30.432c-4.716.454-6.774 4.025-8.72 7.614-.4.742-.576 1.846-1.382 1.918-1.28.113-.652-1.285-1.061-1.882-2.04-2.98-4.474-5.62-7.54-7.562-2.25-1.428-1.947-2.565-.016-4.016 3.407-2.568 6.832-5.16 8.429-10.145 1.864 2.646 2.503 5.395 4.722 7.201 1.679 1.364 2.985 3.101 5.461 3.013 1.292-.045 1.877.7 1.867 2.08-.006 1.303-.681 1.676-1.76 1.779zm-16.088-69.845c2.53-1.17 4.382-3.716 5.061-6.717.152-.682.003-1.588.949-1.706.706-.094.86.57 1.118 1.152 2.883 6.54 6.035 8.132 12.027 10.975-6.656 1.837-10.175 6.399-13.518 12.664-.779-7.372-6.283-9.53-11.002-12.476 1.67-1.982 3.34-2.955 5.365-3.892zm-1.537-64.043c1.255-1.767 4.116-2.103 4.413-4.743.258-2.31 2.54-3.268 3.367-5.384.282 2.862 2.122 4.88 3.389 7.06 1.249 2.143 3.04 4.4 6.222 4.258.867-.036 2.094 0 1.988 1.477-.063.921.13 2.042-1.236 2.258-6.038.957-8.629 5.328-10.423 10.942-1.616-3.12-2.216-6.55-5.165-8.23-2.794-1.585-4.516-4.707-8.125-5.01 1.445-2.43 4.222-.727 5.57-2.628zm20.007 35.327c-5.453 2.316-9.253 5.677-11.423 10.757-.546 1.276-1.3 1.176-1.937-.09-1.28-2.54-2.494-5.235-4.646-7.075-1.74-1.485-4.247-2.037-5.677-4.32 5.028-1.527 8.368-4.737 10.25-9.468.576-1.446 1.522-.77 1.78-.061.605 1.655 2.006 2.722 2.824 4.268 1.618 3.04 5.265 4.095 8.829 5.99zm-43.623 170.854c-.81 1.207-1.943 1.404-2.58-.47-1.427-4.197-4.924-6.316-8.567-8.232-.616-.321-1.467-.521-1.304-1.306.082-.4.87-.773 1.407-.943 4.122-1.294 6.431-4.504 8.428-7.999.337-.588.213-1.44 1.155-1.543.852-.094 1.413.473 1.737 1.1 2.337 4.499 5.74 7.76 11.802 9.43-6.001 2.052-9.247 5.735-12.078 9.963zm1.794 29.729c-.821 1.027-1.621 2.073-2.506 3.037-.658.715-1.285 1.076-1.807-.276-1.615-4.195-4.485-7.16-8.807-8.617-.549-.182-1.361-.537-1.143-1.055.306-.727.973-1.585 1.67-1.81 3.17-1.024 5.34-3.194 7.362-5.674.388-.472.679-.851.827-1.44.249-.987-.254-2.742.982-2.776 1.519-.04 2.568 1.589 3.146 2.886 1.422 3.188 3.243 5.665 6.914 6.504 1.173.27 2.115 1.452 2.837 3.068-4.501.403-7.068 3.155-9.475 6.153zm-13.263 25.315c.134-.964.24-1.921 1.392-2.322 4.018-1.394 6.928-3.837 7.7-8.274.086-.497.44-.843 1.337-.858.437 1.397 2.328 1.703 2.795 3.504.71 2.728 2.54 4.65 5.319 5.24 1.755.376 2.413 1.846 2.707 2.944.354 1.324-1.495 1.024-2.361 1.497-3.137 1.716-5.04 4.737-7.235 7.384-1.458 1.76-1.543 2.143-2.913-.219-1.815-3.128-3.17-7.25-7.931-7.502-.688-.036-.904-.73-.81-1.394zm20.092 32.9c-5.374 2.33-7.256 7.392-10.087 12.42-2.31-5.752-4.992-9.975-10.626-11.217-1.1-.246-1.279-.852-1.267-1.807.015-1.115.34-1.785 1.585-1.976 4.301-.655 6.801-3.653 8.978-7.053.47-.73.009-2.443 1.376-2.107 1.257.312 2.552 1.06 3.155 2.582 1.154 2.916 3.373 5.126 6.2 6.132 2.532.903 2.929 2.05.686 3.025zm-11.093-139.708c1.073-2.046 1.888-.597 2.634.255 1.93 2.212 3.712 4.525 5.825 6.613 1.155 1.143 2.44.761 3.413 1.51.533.412 1.615.209 1.606 1.14-.006.785-.724 1.14-1.415 1.454-3.595 1.637-7.171 3.116-8.32 7.663-.43 1.697-2.955 1.094-3.992-.555-1.412-2.246-3.124-4.558-5.582-5.531-1.955-.776-3.065-2.08-4.592-3.565 4.952-1.56 8.183-4.72 10.423-8.984zm12.896-22.26c.021 1.619-.979 1.755-2.08 1.846-3.694.312-5.667 2.4-6.776 5.853-.41 1.276-1.849 2.225-2.946 3.464-1.3-1.47-2.249-2.964-2.882-4.298-1.282-2.697-2.828-4.634-5.868-5.065-1.1-.154-1.379-.833-1.3-1.779.066-.8-.17-2.043.909-2.085 4.498-.176 5.334-4.222 7.565-6.817.636-.74.218-2.752 1.764-2.17 1.146.433 2.4 1.718 2.755 2.885 1.064 3.483 3.085 5.562 6.74 5.902 1.419.133 2.1.69 2.12 2.264zm-22.328-32.787c.73-.624 1.373-1.764 2.152-1.858 4.282-.515 5.492-4.01 7.201-7.038.355-.63.737-.882 1.412-.673.743.637 2.219.13 2.513 1.185 1.206 4.31 4.783 5.893 8.335 7.545.676.312 1.421.721 1.276 1.518-.079.446-.715.97-1.21 1.137-3.852 1.294-6.973 3.288-8.398 7.42-.273.8-1.255 1.767-2.522 1.818-1.485.061-1.024-1.382-1.588-1.942-2.64-2.65-4.361-6.402-8.574-7.233-.997-.197-1.903-.763-.597-1.879zm23.213-31.41c-5.546.496-7.568 5.15-10.817 8.214-1.285 1.209-1.925 3.682-3.43-.322-1.186-3.149-4.265-5.777-7.82-7.08-.785-.282-1.813-.403-1.722-1.361.06-.634 1.052-.78 1.728-1.064 3.764-1.591 6.607-4.268 8.122-8.063.576-1.442 1.534-1.976 2.25-.945 3.054 4.398 6.6 8.177 11.69 10.62zm-22.334-34.245c4.007-1.298 6.737-4.259 8.28-7.881 1.022-2.404 1.61-1.549 2.546-.424 2.122 2.54 3.91 5.3 6.801 7.204 1.413.93 3.107 1.14 4.483 2.343-2.052 1.986-5.386 2.043-6.971 4.726-.773 1.3-2.422 1.988-2.567 3.8-.14 1.668-1.813 1.456-2.819 1.783-1.533.5-.994-1.146-1.455-1.81-2.21-3.164-4.819-5.904-8.501-7.417-.515-.215-1.252-.727-1.27-1.127-.03-.764.77-.97 1.473-1.197zm-19.891 203.753c-1.158 2.761-2.38 1.664-3.75.721-.642-.445-1.073-1.279-1.445-2.012-1.91-3.777-5.274-5.608-9.502-6.741 1.306-1.543 2.37-2.389 4.04-3.031 2.81-1.086 5.004-3.365 6.283-6.135.7-1.519 1.828-1.434 2.93-1.516 1.392-.106 1.14 1.164 1.45 2.037.879 2.48 2.652 4.159 5.082 5.174 1.755.734 3.428 1.603 4.486 3.798-5.1.71-7.929 3.77-9.574 7.705zm7.07 25.373c-3.188 1.737-6.77 3.234-7.267 7.593-.125 1.085-.764 1.406-1.764 1.245-.964-.154-1.816-.282-2.216-1.47-1.291-3.84-3.628-6.69-7.829-7.541-.87-.176-1.251-.679-1.103-1.525.179-1.03.155-2.015 1.655-2.391 3.773-.94 6.45-3.213 7.274-7.202.288-1.388 1.243-1.637 1.628-1.655 1.585-.157 2.167.082 2.303 1.006.64 4.395 3.861 6.402 7.49 7.96 1.06.458 1.39 1.225 1.527 2.228.185 1.352-.84 1.282-1.698 1.752zm-11.017-75.452c1.443-1.828 2.968-1.443 3.886.548 1.53 3.332 3.907 5.944 7.465 7.196.718.255 1.676.482 1.7 1.088.034.916-1.018 1.013-1.77 1.37-3.397 1.628-6.352 3.726-7.474 7.648-.451 1.579-3.11 1.894-3.94.366-2.325-4.288-5.75-7.226-11.232-9.29 5.613-1.594 8.471-5.259 11.365-8.926zm-2.53-92.96c.845-1.272 2.24-2.142 2.27-3.928.027-1.47.976-2.055 2.394-2.127 1.737-.088 1.597 1.251 1.649 2.23.215 4.056 3.14 5.635 6.262 7.075 1.176.536 2.997.724 3.106 2.11.152 1.897-1.994 1.127-2.964 1.776-2.74 1.824-5.41 3.81-6.356 7.217-.251.894-.42 1.694-1.551 1.53-.913-.13-2.2.046-2.407-1.16-.994-5.811-6.428-6.332-10.196-8.954 1.88-3.05 5.883-2.895 7.793-5.768zm-6.614 37.573c.049-1.06.291-1.654 1.47-2.079 3.737-1.346 6.986-3.313 7.51-7.808.173-1.479 1.416-2.173 2.462-2.325 1.57-.227 1.242 1.452 1.388 2.343.673 4.214 3.658 6.287 7.177 7.717 1.212.494 1.73.964 1.81 2.234.09 1.507-.795 1.625-1.943 1.977-3.547 1.103-5.81 3.637-6.908 7.132-.315 1-.379 1.936-1.648 1.694-1.258-.103-2.028-.467-2.462-1.773-1.188-3.598-3.482-6.253-7.325-7.144-1.2-.28-1.585-.807-1.53-1.968zm2.477 30.372c2.542-1.474 4.93-3.259 6.08-6.011.587-1.412.748-2.682 2.642-2.789 1.961-.106 1.364 1.489 1.919 2.392 1.788 2.898 3.828 5.64 7.386 6.586.833.219 1.81.346 1.855 1.343.045.976-.891 1.234-1.691 1.585-4.086 1.768-7.286 4.335-7.923 9.124-.097.727-.673.927-1.343.882-1.145-.085-2.164-.324-2.43-1.697-.734-3.79-3.407-5.799-6.635-7.402-1.079-.534-2.758-.867-2.494-2.665.227-1.552 1.779-.851 2.634-1.348zm-15.191 67.901c-3.055 1.7-5.77 3.825-6.895 7.305-.33 1.018-.73 1.688-1.825 2.267-1.427-1.521-3.412-2.77-4.061-4.516-1.155-3.113-3.889-3.91-6.234-5.068-2.167-1.073-1.68-1.958-.237-2.613 4.68-2.125 7.465-6.01 10.035-10.154.246-.397.31-.982.922-.915.676.076 1.042.64 1.103 1.224.494 4.699 4.219 6.702 7.516 9.039.852.603 2.195.764 2.152 2.113-.051 1.736-1.658.86-2.476 1.318zm-12.432-39.307c1.379-1.23.972-3.043 2.415-4.18 1.64-1.288 2.476-1.309 3.05.719 1.066 3.786 3.979 5.856 7.194 7.52.843.43 1.995.449 2.119 1.546.109.964-.806 1.31-1.64 1.628-4.413 1.67-7.256 4.592-8.004 9.48-.212 1.38-1.14.81-1.961-.111-1.513-1.686-1.634-4.086-3.17-5.693-2.434-2.546-5.568-3.995-9.557-5.516 3.886-1.546 6.91-3.034 9.554-5.393zm-5.956-93.683c3.634-1.264 6.047-3.795 7.401-7.357.443-1.157 1.44-1.554 2.446-1.973.706-.118 1.252.167 1.364.84.803 4.804 4.652 7.168 7.959 9.942.636.533 1.615.709 1.297 1.812-.257.894-1.173.619-1.797.885-3.31 1.413-5.674 3.88-7.18 7.09-.394.837-.315 2.116-1.388 2.228-1.185.124-2.113-1.055-2.364-1.95-.8-2.836-3.034-4.328-4.92-6.25-.79-.809-1.484-.993-2.382-1.196-.879-.198-2.173.1-2.251-1.264-.073-1.261.439-2.331 1.815-2.807zm-1.491 34.811c.027-1.124.433-1.83 1.594-2.055 3.937-.763 6.083-3.525 7.523-6.956.488-1.164 1.051-2.497 2.224-2.561 1.658-.094 1.119 1.734 1.649 2.667 1.637 2.886 3.743 5.483 6.986 6.617 1.258.443 1.77.903 1.843 2.185.076 1.389-.628 1.61-1.791 2.113-3.404 1.47-6.186 3.762-7.162 7.611-.215.846-.443 1.606-1.446 1.806-1.115-.597-1.76-1.46-2.276-2.64-1.525-3.488-3.616-6.495-7.829-7.04-1.106-.143-1.34-.761-1.315-1.747zm20.9 32.942c-2.749 2.016-5.188 4.328-7.289 7.083-.979 1.286.022 4.074-2.336 3.877-1.925-.154-1.483-2.81-2.458-3.964-2.083-2.462-4.222-4.962-7.053-6.666-1.358-.821-1.816-1.897-.182-2.628 3.558-1.585 6.265-3.822 7.604-7.623.325-.921 1.213-1.788 2.567-2.097.33.412.861.806 1.016 1.315 1.27 4.18 3.997 6.838 8.107 8.257 1.882.648 1.319 1.5.024 2.446zm-42.231 44.675c-1.594-7.05-6.298-10.424-12.081-13.416 6.313-2.288 10.165-6.195 12.266-11.9 3.073 5.35 6.452 10.088 13.514 12.097-7.162 2.095-10.965 6.568-13.7 13.219zm10.987-45.47c.109 1.295-1.237.825-1.728 1.298-2.982 2.867-7.14 4.77-7.944 9.493-.085.519-.518 1.076-1.536 1.143-1.361-4.72-4.356-8.08-8.135-10.784-1.87-1.334-2.573-1.722.236-3.144 3.222-1.624 6.035-4.252 7.402-7.923.154-.412.333-.997.651-1.127.682-.28 1.237.351 1.37.851.473 1.822 2.094 2.87 2.864 4.601.761 1.707 2.376 3.662 4.892 3.814 1.076.063 1.834.67 1.928 1.779zm-.864-30.319c-4.501.758-6.847 3.934-8.553 7.75-.349.78-.485 1.77-1.482 1.722-.994-.048-.488-1.21-.861-1.718-2.149-2.953-4.446-5.778-7.662-7.672-2.043-1.21-1.734-2.783-.224-3.937 3.273-2.501 6.68-4.799 8.089-8.963.091-.273.6-.682.664-.64.473.306 1.142.637 1.276 1.094 1.397 4.82 4.716 7.481 9.447 8.575 1.07.249 1.315.907 1.26 1.877.289 1.558-.836 1.724-1.954 1.912zm-15.648-37.558c2.2-1.797 3.885-4.458 4.87-7.301.746-2.159 1.761-1.564 2.731-.334a9.54 9.54 0 0 1 1.5 2.816c1.034 3.077 2.858 5.147 6.262 5.526 1.576.175 2.78.809 2.713 2.703-.07 1.97-1.758 1.6-2.698 1.531-3.65-.282-3.992 3.392-6.134 4.868-.219.151-.088.903-.288.988-1.549.67-1.58 2.873-2.873 3.331-2.231.785-1.686-2.022-2.428-2.934-2.519-3.098-4.95-5.968-9.068-6.92 1.363-2.406 3.758-2.922 5.413-4.274zm-16.01 5.135c-2.982.033-4.818.96-3.985 4.398.176.721-.348 1.33-.833 1.419-2.207.409-4.05 1.112-5.222 3.297-.361.676-1.428.325-1.807-.809-1.324-3.965-4.385-6.453-7.844-8.375-1.624-.903-1.733-1.294-.345-2.443 2.012-1.664 3.867-3.516 5.859-5.213 1.482-1.267 2.824-2.437 2.115-4.744-.288-.945.318-2.015 1.246-2.412 1.048-.446 1.44.706 1.882 1.318 3.1 4.274 5.916 8.802 10.887 11.282.375.188.579.724.833 1.064-.552 1.521-1.81 1.209-2.785 1.218zm-8.443 102.901c-.788 1.158-2.119 8.587-4.104.133-.418-1.794-2.882-4.704-6.122-5.313-1.185-.221-2.792-1.722-2.989-2.85-.248-1.436 1.94-.796 2.752-1.466 2.665-2.2 5.598-4.21 6.962-7.59.264-.652.118-1.48 1.094-1.591.846-.1 1.45.394 1.761 1.042 2.276 4.705 5.962 7.787 11.802 9.485-5.055 1.93-8.58 4.355-11.156 8.15zm-10.863-74.582c1.895-1.64 4.374-2.27 6.059-4.468 1.23-1.6.997-3.352 1.894-4.974 2.1.67 2.889 2.462 3.665 4.15 1.321 2.873 3.046 5.128 6.519 5.356 1.312.088 2.234.473 2.252 2.158.021 1.858-1.228 1.906-2.389 1.988-3.346.228-5.067 2.41-6.285 5.135-.795 1.78-1.77 3.325-3.74 4.64-1.258-4.661-3.938-7.832-8.06-9.844-2.03-.989-1.703-2.598.085-4.14zm.503 32.575c2.637-2.2 4.974-4.756 6.887-7.63.406-.609.003-1.812 1.294-1.715.957.073 1.27.837 1.71 1.61 1.414 2.479 3.551 4.367 5.406 6.468 1.464 1.66 3.525.682 4.968 2.885-5.901 2.443-9.096 7.423-12.57 12.416-.527-5.332-3.748-8.005-7.934-10.03-1.115-.537-2.597-1.798-2.622-2.761-.036-1.45 2.107-.616 2.861-1.243zm7.108-104.71c.497-1.626 2.079-.662 2.691.475 2.164 4.025 5.101 7.105 9.56 8.55.378.122.812.613.897 1.004.154.721-.464 1.079-1.061 1.212-4.58 1.004-7.314 4.09-9.405 8.039-.667 1.255-1.937 2.155-2.828.13-1.876-4.268-4.819-7.293-9.316-8.723-.313-.103-.546-.464-.958-.83 4.27-2.792 8.823-4.62 10.42-9.858zm-20.834 107.792c-.755.34-1.388.992-2.158 1.234-3.252 1.025-5.386 2.955-5.692 6.52-.118 1.343-.57 2.197-2.197 2.246-1.607.042-1.725-.9-1.916-2.025-.579-3.437-3.085-5.256-5.898-6.677-1.621-.819-3.228-1.543-4.376-3.577 2.646-.737 5.325-.746 6.87-2.976 1.222-1.758 2.452-3.547 3.356-5.472.579-1.233 1.351-1.103 2.318-1.097 1.173.01 1.555.576 1.885 1.695 1.104 3.728 3.75 6.04 7.399 7.183.821.258 1.818.328 1.973 1.24.163.979-.761 1.346-1.564 1.706zm-2.428 33.772c-2.585 1.41-4.828 2.937-5.47 6.169-.255 1.29-1.586 2.591-2.889 2.688-1.385.1-.812-1.74-1.349-2.555-1.554-2.355-2.694-5.253-5.807-6.002-1.297-.312-2.064-1.157-3.027-1.84-.549-.384-1.6-.43-1.243-1.4.17-.457.882-.906 1.415-1.006 4.507-.843 6.953-4.01 8.765-7.802.449-.934.916-1.34 1.861-1.267.946.073 1.834.018 2.328 1.237 1.534 3.78 4.007 6.68 8.138 7.774.648.173 1.088.449 1.118 1.428-1.194.81-2.452 1.816-3.84 2.576zm3.407-67.344c.057 1.364-.506 1.768-1.8 2.125-3.62.985-5.908 3.583-7.008 7.063-.415 1.318-.882 1.894-2.003 1.71-1.394.196-1.916-.316-2.119-1.526-.603-3.573-3.391-5.452-6.183-7.032-1.27-.721-1.77-1.473-1.918-2.706-.2-1.655 1.358-1.258 2.112-1.834 2.443-1.864 5.38-3.383 5.968-6.853.179-1.061.379-1.886 1.703-1.819 1.17.055 1.958.321 2.37 1.685 1.116 3.686 3.531 6.266 7.344 7.202 1.237.306 1.488.87 1.534 1.985zm-1.837-29.84c-3.422.876-5.995 2.822-6.95 6.377-.287 1.085-.657 1.776-1.854 1.773-.813 0-1.783.367-2.18-.721-1.773-4.868-5.434-7.593-10.307-8.854 1.563-3.513 5.728-3.134 7.707-5.895 1.121-1.564 2.649-2.765 2.637-4.917-.006-1.067.67-1.47 1.688-1.364.821.085 2.006-.07 1.967 1.08-.176 5.44 4.622 6.686 7.756 9.296.697.585 1.906.542 1.464 1.955-.31.994-1.067 1.049-1.928 1.27zm-11.02-43.708c.852-1.53 3.191-1.252 3.952.397 1.713 3.707 4.146 6.614 8.268 7.79.497.142 1.167.746 1.213 1.191.103 1.064-.922.77-1.558.952-3.728 1.052-5.95 3.892-7.735 7.005-.57.994-.703 1.903-2.067 1.96-1.258.058-1.63-.545-2.346-1.572-2.515-3.635-5.41-7.014-11.005-8.493 5.701-1.874 8.935-5.023 11.278-9.23zm-27.165 47.845c-.488.521-1.094 1.055-1.288 1.688-.34 1.1-.043 2.859-1.595 2.774-1.424-.079-2.09-1.67-2.879-2.907-1.834-2.873-3.373-6.18-7.495-6.517-.791-.063-1.552-.53-2.325-.812.525-.64.94-1.667 1.594-1.858 4.698-1.337 6.871-5.359 9.663-8.745.503-.609.763-1.664 1.84-1.51 1.218.174.82 1.277 1.012 2.026.809 3.161 3.355 4.922 5.725 6.671 1.367 1.01 2.658 1.985 3.952 3.704-3.861.376-5.943 3.058-8.204 5.486zm-14.37 26.228c.022-1.173.164-2.073 1.57-2.431 3.759-.967 6.21-3.474 7.623-7.005.47-1.182 1.073-2.437 2.3-2.47 1.389-.04 1 1.634 1.519 2.446 1.824 2.855 3.225 6.301 7.18 6.914 1.503.23 1.697 1.09 1.606 2.04.037 1.182-.215 1.746-1.276 2.076-3.825 1.194-6.246 3.877-7.747 7.547-.266.652-.254 1.943-1.34 1.837-.966-.097-1.709-.952-2.012-1.882-.685-2.104-1.8-3.853-3.464-5.329-1.185-1.052-2.228-2.167-3.982-2.222-.919-.027-2.004-.054-1.976-1.521zm.595 30.35c4.734-.449 6.495-4.486 9.147-7.378 1.664-1.81 2.203-3.631 3.518.488.93 2.916 3.716 5.51 7.099 6.61.679.222 1.46.12 1.67 1.04.009.889-.749 1.052-1.282 1.513-3.343 2.91-7.305 5.265-8.508 10.066-.579 2.322-1.915.428-2.137-.109-1.924-4.692-5.673-7.617-9.632-10.387-.979-.68-.888-1.746.125-1.843zm19.14 36.09c-3.253 1.989-5.732 4.56-6.838 8.26-.491 1.634-1.107 2.216-2.27.573-2.922-4.122-5.783-8.232-10.605-10.509-1.185-.56-.58-1.479.663-1.937 2.44-.9 4.54-2.285 6.338-4.28.606-.675 1.521-1.051 1.564-2.103.094-2.355 1.376-3.992 3.488-5.474.5 4.113 1.889 7.732 5.438 10.172.688.47 1.282 1.222 2.033 1.425 1.146.309 2.68.157 2.767 1.688.085 1.473-1.627 1.607-2.579 2.185zM249.87 308.962c3.028-1.952 4.213-5.161 6.67-7.386 1.537-1.388 2.504-1.382 3.068.621 1.112 3.934 4.073 6.026 7.48 7.635.755.358 1.782.446 1.697 1.398-.057.624-1.021.809-1.679 1.124-3.316 1.591-6.05 3.934-7.407 7.426-.843 2.17-1.597 2.343-3.231.734-2.44-2.4-3.798-5.723-7.074-7.49-1.34-.721-3.249-.273-4.046-1.928.79-2.006 3.01-1.158 4.522-2.134zm-3.086-31.49c4.916-1.848 7.265-6.292 10.433-9.905.378-.433.485-1.109 1.24-1.194 1.187.17.975 1.197 1.075 1.955.618 4.716 3.752 7.241 7.82 8.85 1.873.74 2.067 1.492.366 2.547-1.072.667-1.712 1.785-3.27 2.006-3.185.45-2.985 4.032-4.716 5.947-1.876 2.083-2.71 2.34-4.185-.009-2.14-3.413-4.504-6.62-8.441-8.199-1.2-.479-1.643-1.5-.322-1.997zm-10.25 2.05c-4.916 2.125-8.601 5.425-10.132 10.763-.082.276-.497.455-1.2 1.07-1.203-6.256-6.095-8.732-10.241-11.851-.449-.337-1.185-.322-1.18-1.1.007-.567.419-.834.92-.943 6.288-1.367 8.404-6.472 10.45-11.646.133-.333.348-.627.687-1.23 1.486 3.4 2.292 6.92 5.265 9.284 1.637 1.3 3.188 2.667 5.143 3.422.655.255 1.582.115 1.716 1.006.148.988-.78.943-1.428 1.225zm.464 161.382c-4.97 2.004-8.696 5.144-10.305 10.545-.406 1.355-1.288.649-1.94-.424-1.185-1.937-2.064-4.01-3.479-5.865-2.225-2.922-6.065-2.868-8.96-5.944 4.205.075 6.914-2.01 9.09-4.75 1.346-1.691 2.316-3.695 3.395-5.592.685-1.2 1.54-1.455 1.864.003 1.267 5.683 4.885 8.811 10.365 10.1.482.117.903.4.88.972-.022.549-.425.761-.91.955zm-3.016-127.392c-4.907 1.082-5.743 5.507-8.468 8.99-3.07-5.101-6.595-9.63-13.057-11.148 3.198-2.007 6.423-3.095 8.814-5.571 1.658-1.713 2.276-3.968 3.594-5.847.688-.976 1.586-1.249 1.731-.121.603 4.77 4.358 7.317 7.598 9.508 3.431 2.322 1.743 3.756-.212 4.189zm.503 31.493c-3.676 1.3-6.207 3.846-7.492 7.535-.254.73-.527 1.546-1.173 1.7-1.306.318-.885-1.06-1.324-1.621-2.834-3.598-5.32-7.657-10.908-8.37 5.186-4.294 9.914-8.031 12.557-13.96.618 5.898 4.376 9.078 8.913 11.651.637.36 1.373.737 1.228 1.567-.155.919-.943 1.191-1.8 1.498zm-20.652 30.407c-.02-.997.397-1.57 1.419-1.752 4.873-.879 7.02-4.822 9.395-8.472.306-.472.246-1.367 1.019-1.179.463.112.906.74 1.154 1.237a24.5 24.5 0 0 0 6.083 7.78c.967.82 3.222.05 2.961 2.201.013 1.08-.054 1.798-1.088 2.222-3.919 1.61-6.861 4.186-8.037 8.454-.14.509-.498 1.154-1.25 1.09-.608-.05-.572-.65-.808-1.042-2.337-3.852-4.583-7.832-9.632-8.657-1.155-.188-1.198-.99-1.216-1.882zm2.055 30.808c4.789-.767 5.874-5.238 8.65-7.981.406-.403.015-1.613 1.052-1.534.742.058 1.094.761 1.352 1.495 1.379 3.904 3.973 6.59 7.97 7.886 1.92.622 1.443 1.567.189 2.489-2.752 2.025-5.268 4.225-7.365 7.005-.994 1.315-.14 3.552-2.258 4.161-1.976-4.759-5.783-7.835-9.647-10.796-1.537-1.176-1.75-2.437.057-2.725zm-20.964-85.924c-.427.815-.906 1.421-1.891 1.37-1-.046-.8-.95-1.134-1.528-1.973-3.42-4.534-6.344-8.286-7.817-2.034-.8-1.73-1.473-.41-2.61 2.434-2.091 5.802-2.728 7.68-5.974.759-1.307.365-3.416 2.404-4.186 2.643 5.386 6.69 9.43 13.603 11.821-6.208 1.294-9.638 4.465-11.966 8.924zm.285 128.27c-1.852 4.056-3.05 3.58-4.374.155-1.567-4.052-5.046-5.671-8.398-7.59-.558-.32-1.528-.518-1.23-1.479.1-.324.693-.582 1.115-.712 5.11-1.597 8.313-5.104 10.162-10.009.073-.19.343-.312.7-.612 1.491 2.528 2.961 4.992 5.198 6.993 2.188 1.958 4.568 3.41 8.171 4.498-5.489 1.737-9.398 4.486-11.344 8.757zm5.258-102.452c-3.179 1.137-4.067 3.655-5.276 6.144-.467.958-.716 2.182-2.11 2.107-1.497-.076-.712-1.583-1.23-2.204-2.731-3.277-5.138-6.99-10.26-7.975 3.52-4.67 11.205-5.447 10.932-13.021 2.255 2.197 2.859 5.34 5.407 7.056.889.597 1.6 1.47 2.352 2.252 1.119 1.173 3.78.734 3.765 2.734-.012 1.725-2.534 2.534-3.58 2.907zm-16.096 27.352c3.506-1.815 6.237-4.265 7.713-8.038.649-1.655 1.194-1.455 2.291.036 1.367 1.852 1.967 4.204 3.84 5.71 1.1.886 1.858 2.244 3.553 2.216 1.29-.02 1.545.889 1.554 1.961.01.98.134 1.989-1.224 2.216-3.352.555-4.974 2.983-6.19 5.814-.672 1.56-1.645 2.828-3.224 3.895-1.618-4.377-4.673-7.235-8.132-9.678-1.9-1.346-2.148-3.11-.181-4.132zm-.07 32.502c3.488-1.591 6.192-4.38 7.57-7.91.85-2.177 1.34-1.41 2.301-.434.506.512 1.291 1.027 1.385 1.627.658 4.09 4.325 5.01 7.035 6.957.633.454 1.597.9 1.449 1.803-.125.749-1.204.652-1.722 1.015-3.243 2.265-6.17 4.905-7.97 8.506-.42.84-.507 1.785-1.698 2.321-1.776-4.722-4.443-8.623-8.702-11.3-1.564-.978-1.679-1.66.352-2.585zm-1.41-128.707c4.601-1.595 7.762-4.656 9.187-9.375.203-.67.042-1.561 1.064-1.583.754-.012.815.67 1.045 1.243 1.913 4.732 5.02 8.278 10.011 9.93.394.13.864.53.973.9.134.46-.27.821-.779 1.03-4.74 1.947-8.17 5.163-9.908 10.091-.212.597-.988.994-1.873 1.834-1.782-5.596-4.797-9.563-9.82-11.76-.684-.304-1.472-.55-1.321-1.383.097-.533.818-.718 1.422-.927zm-22.616 46.066c-1.645-5.65-4.728-9.351-9.847-11.206-.424-.155-.99-.534-1.06-.894-.128-.64.542-.967 1.057-1.167 4.707-1.804 8.214-4.705 9.156-9.96.119-.67.41-1.252 1.155-.98.846.313 2.046.258 2.276 1.477 1.064 5.565 5.101 8.29 11.002 10.666-7.57 1.306-9.423 7.766-13.739 12.064zm10.842 21.535c-3.07 1.41-5.883 3.11-7.602 6.287-1.697 3.134-2.464 2.891-4.852.2-2.655-2.998-5.046-6.505-9.568-7.169 1.16-2.022 2.776-2.904 4.619-3.589 2.8-1.04 4.022-3.655 5.522-5.947.536-.824-.27-2.703 1.176-2.573 1.048.094 2.58 1.325 2.858 2.337 1.149 4.153 3.925 6.32 7.813 7.48.81.243 1.758.598 1.78 1.556.024 1.006-.976 1.06-1.746 1.418zm-20.64 30.92c.06-.925-.2-1.976 1.185-2.261 4.819-1.004 6.916-4.544 8.21-9.133 1.446.988 2.631 1.516 3.337 3.61.846 2.519 2.883 4.974 6.19 5.326 1.424.151 2.888.203 2.903 2.364.018 2.21-1.967 1.279-2.7 2.028-1.91 1.949-5.874 1.673-6.017 5.498-.06 1.549-1.621 1.943-2.406 2.895-.858 1.036-1.546-.003-1.825-1.116-.994-3.995-3.734-6.332-7.532-7.474-1.03-.306-1.409-.764-1.345-1.737zm19.937 33.76c-3.425 1.421-6.374 3.016-7.21 7.153-.174.864-1.54 2.422-2.88 2.276-1.373-.151-.54-1.946-1.118-2.715-1.625-2.168-2.7-4.905-5.568-5.911-1.819-.64-3.41-1.57-4.374-3.298 1.073-1.476 2.862-1.194 4.228-1.885 2.956-1.491 4.292-4.192 5.65-6.644 1.346-2.434 2.003-1.449 2.985-.179 1.795 2.325 3.598 4.598 5.874 6.517.679.567 1.218.997 2.046 1.13 1.07.17 2.537.458 2.746 1.319.37 1.515-1.446 1.849-2.38 2.237zm-19.825-132.148c4.307-.83 6.08-4.62 8.59-7.447.7-.794.812-1.85 2.215-1.692 1.267.14 1.606.843 2.152 1.95 1.63 3.3 3.88 6.168 7.762 7.08.763.179 1.427.303 1.327 1.61-.37.309-.842 1.003-1.455 1.163-4.346 1.125-6.946 3.838-7.856 8.224-.297 1.424-1.373 1.976-2.676 1.976-1.485 0-.93-1.404-1.34-2.161-1.463-2.707-2.697-5.72-6.107-6.547-1.44-.349-2.188-1.428-3.188-2.262-1.288-1.079-.476-1.694.576-1.894zm-20.052 43.232c-.47 1.64-2.861.764-3.476-.455-2.274-4.477-5.49-7.69-11.148-8.88 5.553-2.353 9.508-5.375 11.326-10.567.41-1.164 2.25-1.264 2.261-1.218.625 2.697 4.304 3.064 4.72 5.019.751 3.546 2.6 5.359 6.704 6.392-5.24 2.27-8.944 4.644-10.387 9.709zm8.432 24.142c-4.253 1.13-6.82 3.889-8.184 7.92-.542 1.61-1.318 1.134-2.473.597-1.758-.821-1.503-2.821-2.767-3.976-2.6-2.377-5.652-3.886-8.929-5.444.946-1.528 2.319-2.216 3.698-2.983 2.861-1.59 5.668-3.337 6.474-6.883.324-1.428 1.282-1.998 2.6-2.061 1.516-.076 1.03 1.291 1.449 2.043 1.503 2.691 2.073 6.204 6.034 6.813.876.137 1.692.88 2.47 1.431 1.5 1.055 1.173 2.134-.372 2.543zm-21.083 30.993c.046-.949-.09-1.87 1.255-2.231 3.94-1.061 6.895-3.189 7.765-7.511.267-1.328 1.555-1.437 2.625-1.491 1.203-.067 1.04.997 1.29 1.785 1.137 3.546 3.565 5.959 7.063 7.065 1.273.403 1.848.8 1.824 2.134-.021 1.094-.254 1.68-1.488 2.025-3.85 1.079-6.328 3.652-7.44 7.52-.41 1.41-.519 1.47-1.319 1.428-1.491-.17-2.2-.782-2.67-1.94-1.413-3.474-3.598-6.241-7.498-7.078-1.046-.221-1.455-.706-1.407-1.706zm19.685 34.263c-4.71.551-5.54 4.283-6.828 7.668-.276.719-.385 1.428-1.327 1.358-.85-.06-1.995-.176-2.177-1.015-1.073-4.898-4.716-7.138-8.834-9.012-.719-.327-1.225-1.118-2.225-2.079 5.504-.682 8.52-3.998 11.217-7.92 1.052-1.53 2.564-3.852 3.695.491.754 2.892 3.627 4.853 6.286 6.414.927.548 2.74-.034 2.81 1.567.063 1.46-1.883 2.44-2.617 2.528zM122.67 300.966c.17 1.452.309 2.925-2.046 2.822-2.616-.112-1.303-2.058-1.727-2.888.112-4.923 2.503-6.935 7.267-6.738 1.625.07 2.031.612 2.061 2.118.03 1.561-.648 1.874-1.979 1.722-2.188-.245-3.916.049-3.576 2.964zm.524-26.176c1.934-1.045 2.558-3.95 4.725-5.425 1.567-1.064 2-1.71 2.967.588 1.461 3.455 3.944 6.223 7.756 7.362.734.218 1.458.503 1.607 1.234.163.815-.616 1.179-1.2 1.615-1.992 1.477-4.847 1.398-6.405 3.71-.663.982-1.624 1.686-1.745 3.044-.28 3.112-3.08 2.024-3.528 1.115-2.116-4.292-6.053-6.21-9.763-8.511-.409-.255-.788-.564-1.179-.846 2.95-.536 4.653-2.737 6.765-3.886zM106.3 344.844c-4.152 1.288-6.904 3.937-8.204 8.108-.206.655-.655 1.6-1.41 1.312-.833-.312-1.879-1.042-2.106-1.806-1.294-4.347-4.34-6.556-8.474-7.85-1.103-.346-1.237-.9.258-2.02 3.737-2.794 7.637-5.667 9.59-10.223.184-.436.211-1.073.775-1.027.382.03 1.006.442 1.052.754.763 5.329 4.8 7.723 8.892 10.097.391.224.652.673.903.942-.003 1.01-.603 1.504-1.276 1.713zm-.2 63.791a32.672 32.672 0 0 0-3.491 2.698c-2.764 2.461-5.165 5.162-5.286 9.275-2.849-4.756-5.865-8.92-10.51-11.694-1.27-.76-1.659-1.867.023-2.649 3.42-1.591 6.58-3.319 7.565-7.456.212-.9 1.152-2.089 2.276-2.1 1.404-.016 1.128 1.5 1.616 2.373 1.688 3.037 3.864 5.704 7.307 6.923.667.233 1.537.127 1.68 1.03.127.84-.555 1.176-1.18 1.6zm-20.81-33.19c-.024-.948.225-1.715 1.304-1.815 4.628-.437 6.35-3.977 8.047-7.523.488-1.016 1.06-1.864 2.173-2.189.785.313 1.046.919 1.306 1.628 1.358 3.704 3.331 6.902 7.508 7.869 1.294.294 1.421 1.048 1.473 2.076.051 1.067-.091 1.803-1.398 2.08-4.073.854-5.983 4.034-7.51 7.468-.34.767-.391 1.755-1.31 1.934-.966.187-1.685-.75-1.94-1.398-1.645-4.21-3.915-7.638-8.852-8.356-.952-.137-.78-1.058-.8-1.774zm11.527-75.858c1.515 2.586 2.758 4.686 3.982 6.796 1.219 2.107 3.886 1.3 5.529 2.87 1.345 1.283 1.633 1.98.048 2.956-3.48 2.146-6.356 4.87-8.398 8.438-.728 1.27-1.37 1.016-2.552.27-1.725-1.088-1.246-3.165-2.698-4.444-2.643-2.334-5.646-3.873-8.974-5.51 6.392-1.37 9.696-6.168 13.063-11.376zm-11.411-22.154c4.846-1.96 7.298-6.298 10.408-9.98.451-.537.545-1.41 1.5-1.062.667.246.682.946.733 1.537.43 4.977 4.11 7.214 7.914 9.29.652.355 1.388.61 1.573 1.307.224.821-.473 1.373-1.125 1.648-4.846 2.053-7.434 6.057-9.383 10.924-3.013-5.046-6.45-8.96-11.223-11.508-1.203-.646-2.049-1.492-.397-2.156zm-21.3 207.012c-1.998-5.404-5.053-9.745-11.336-11.588 3.897-4.437 10.874-5.637 11.096-13.079 2.858 6.369 8.08 9.927 14.169 12.716-7.238 3.264-7.238 3.264-13.93 11.951zm-31.376-1.049c-.282.513-.279 1.204-1.04 1.267-.56.046-.866-.315-.979-.827-1.321-6.038-5.613-9.112-11.22-11.29 4.31-1.383 7.074-4.438 9.954-7.49.906-.961.924-1.825 1.12-2.798.165-.806.08-1.925 1.056-1.94.751-.01 1.397.864 1.673 1.703 1.342 4.09 4.061 6.808 8.11 8.224 1.316.46 1.961 1.63 3.337 2.885-6.662.806-9.377 5.505-12.011 10.266zm900.57-355.945c-2.901-4.222-6.023-8.238-11.479-9.36-.59-.121-1.263-.236-1.29-1.012-.04-1.025.827-1.107 1.5-1.122 4.943-.115 7.434-3.395 9.756-7.162 3.17-5.138 2.806-9.824-.337-14.961-3-4.896-6.816-7.275-12.499-6.684-.842.088-1.697.021-2.543.079-5.216.352-8.835 3.113-10.874 7.756-.646 1.47-1.519 1.722-2.716 1.807-1.349.094-1.203-1.085-1.64-1.916-1.812-3.464-4.646-5.95-8.189-7.574-.997-.455-2.473.015-2.464-1.925.006-1.716 1.04-1.858 2.273-2.176 4.774-1.243 10.869-9.96 9.565-14.54-1.406-4.953-2.312-10.112-8.437-12.637-8.253-3.4-19.443-2.252-21.37 7.757-.237 1.233-.895 1.515-2.001 1.57-1.297.057-1.776-.612-1.797-1.725-.034-1.721-.961-2.897-2.152-3.992-2.492-2.297-4.059-5.853-8.28-5.434 1.178-3.695 4.734-3.72 6.837-5.768 5.677-5.53 7.383-13.17 2.988-19.384-2.746-3.889-6.695-7.038-11.708-7.15-5.637-.125-11.062-.767-14.939 6.08-4.458 7.875-4.649 14.255 1.895 20.435 2.012 1.9 5.416 2.531 6.125 5.878-3.522.666-3.54.648-6.222 3.382-2 2.037-3.459 4.086-4.404 7.12-1.54 4.95-1.273 10.042 2.318 13.961 2.155 2.346 4.738 4.135 6.99 6.329 1.006.976.978 1.637-.307 2.088-4.025 1.419-6.798 3.986-8.02 8.184-.366 1.264-1.542 1.328-2.094.212-.503-1.021-1.49-1.409-2.09-2.355-2.674-4.213-6.575-7.153-11.463-8.074-9.596-1.81-16.928 6.42-18.585 13.955-1.534 6.968 2.81 13.985 9.477 16.788 1.473.622 1.649 1.295.61 2.343-.743.752-1.613 1.38-2.42 2.07-2.427 2.065-5.816 3.392-5.649 7.451.03.727-.206 1.519-1.073 1.682-1.155.215-1.21-.809-1.64-1.515-4.034-6.602-9.15-11.182-17.697-10.027-1.99.27-3.37 1.258-5.034 2.007-4.285 1.936-7.174 4.725-7.67 9.58-.08.792.093 1.847-1.034 2.032-.91.148-1.07-.719-1.44-1.337-1.949-3.274-4.07-6.772-7.098-8.778-3.667-2.437-8.593-2.198-12.63-.849-2.497.834-5.416 2.034-6.68 5.835-3.115 9.381-2.576 14.191 3.286 18.647.664.503 1.312 1.055 2.043 1.43 2.088 1.074 4.216 2.07 6.325 3.098-8.41-.027-12.32 5.953-16.433 11.658-6.101-10.694-9.396-11.518-20.667-10.427-3.492.34-9.996 6.932-10.75 10.994-1.877 10.096 3.276 16.328 12.765 20.86-6.068 1.018-9.15 4.385-11.46 8.835-.397.767-2.515 2.63-3.373.542-1.706-4.161-5.064-6.195-8.774-7.686-6.225-2.507-13.463-1.343-17.91 4.813-3.06 4.234-3.112 8.693-2.245 13.549.749 4.204 4.404 8.465 8.659 9.263 1.249.236 2.28.379 2.316 2.112.042 1.889-1.216 1.84-2.377 1.97-4.403.498-6.276 4.004-8.353 7.154-.466.709-.303 2.182-1.3 2.315-1.34.182-2.397-1.151-2.625-2.136-1.07-4.656-4.982-6.053-8.48-8.09-6.407-3.732-18.106 1.44-20.303 8.402-.273.858-.54 1.773-1.425 1.827-1.218.076-.818-1.263-1.215-1.924-2.613-4.329-6.122-7.905-10.95-9.218-7.435-2.018-14.042 1.425-17.561 8.284-.43.846-.91 1.707-1.546 2.389-.749.803-1.8 1.076-2.206-.282-1.364-4.562-4.35-7.184-8.675-9.236-4.194-1.991-8.116-2.003-11.965-.34-4.074 1.762-7.083 5.053-9.223 8.99-.437.804-.812 1.48-1.773 1.516-.703.03-.912-.479-1.191-1.085-2.464-5.35-6.095-9.117-12.533-8.872-2.297.088-4.652-.085-6.88.37-3.734.76-6.459 3.274-8.683 6.229-.834 1.106.197 3.113-1.697 4.137-.346-.621-.604-1.155-.919-1.649-2.179-3.422-4.51-6.701-8.28-8.584-.797-.4-2.161.2-2.394-1.121-.2-1.112 1.254-1.015 1.609-1.697.494-.946 1.497-1.119 2.125-1.689 3.288-3 6.78-5.789 7.183-10.924.6-7.65-1.992-13.212-8.823-17.022-5.143-2.864-10.196-2.322-14.836.252-1.967 1.09-4.998 1.964-5.51 5.437-.124.858-1.412 2.365-1.697 3.84-.258 1.343-.994 1.625-1.985.628-.746-.749-1.589-1.503-2.037-2.425-3.034-6.226-8.66-8.256-14.788-7.92-5.325.288-9.595 3.177-12.02 8.532-3.561 7.866-.87 16.11 6.84 19.605.91.413 2.52-.203 2.638 1.307.124 1.54-1.716 2.646-2.462 2.761-5.761.9-6.637 5.923-8.786 9.866-.27.497-.133 1.3-.845 1.449-.986.206-1.113-.77-1.422-1.33-1.915-3.496-3.713-6.802-7.744-8.721-3.864-1.846-13.869-1.325-17.23 1.47-9.787 8.141-5.392 23.09 4.946 26.116 1.143.336 1.349 1.088.573 1.855-.921.915-1.77 2.03-3.155 2.327-2.991.643-4.613 2.659-5.762 5.35-.724 1.698-1.542 3.492-3.615 4.11-1.27-1.53-.185-3.567-2.037-5.168-2.173-1.876-4.104-3.428-6.907-4.561-7.62-3.077-12.757-2.08-17.937 4.68-1.615 2.106-3.164 4.264-4.767 6.386-.118.155-.425.17-.685.267-1.019-.588-.682-1.7-.961-2.574-1.24-3.885-3.476-8.032-7.338-8.356-6.167-.522-13.038-2.625-18.1 4.137-3.173 4.244-4.007 13.01-1.245 17.595 1.479 2.459 4.906 2.734 5.5 5.747-.278-1.83.413-1.721 1.7-.785 3.95 2.88 11.673 1.95 15.258-1.621 2.306-2.289 4.619-4.444 4.58-8.07-.022-1.724 1.46-1.993 2.764-2.306 1.03-.245 1.276.455 1.306 1.219.106 2.649.606 4.922 2.049 7.447 1.412 2.476 2.86 4.034 5.325 4.859.733.245 1.612.47 1.728 1.085.12.643-.598 1.221-1.292 1.564-4.1 2.013-7.404 4.665-9.22 9.166-1.184 2.943-.963 9.323.713 12.279 2.415 4.255 4.907 8.25 10.12 9.541-.68.94-1.285 1.198-1.985 1.489-3.52 1.49-6.335 3.798-7.574 7.565-.322.982-.782 1.491-1.761 1.385-.916-.1-1.7-.17-2.386-1.215-5.01-7.66-11.065-10.227-19.433-7.772-3.822 1.122-7.156 3.583-8.91 7.387-.68 1.47-.228 3.377-1.27 4.95-.75-1.228-2.286-1.604-2.923-3.034-3.346-7.55-8.492-10.327-16.49-9.527-2.116.212-2.746 2.35-4.62 2.48-3.606.257-4.697 2.83-5.528 5.78-.39 1.382-1.448 2.427-2.703 3.106-.555.304-1.121-.115-1.418-.757-2.51-5.456-6.253-9.648-12.566-11.467 5.858-2.603 11.32-4.831 12.635-11.612.206-1.067 1.607-1.112 1.716-.006.218 2.246 2.321 2.94 3.294 4.592 2.504 4.244 6.656 6.165 11.772 6.193 2.125.012 2.58-2.428 4.643-2.228 3.043.29 6.12.36 6.644-3.865.09-.742.994-.564 1.36-.882 2.253-1.943 3.331-4.413 3.116-7.46-.166-2.318.491-4.749-2.685-5.907-1.68-.609-2.813-2.415-2.761-4.392.088-3.4-2.555-4.886-4.816-5.765-7.365-2.864-17.582 2.152-20.219 9.53-.206.573-.248 1.267-.973 1.352-.936.112-1.082-.625-1.318-1.35-.63-1.903-1.67-3.921-2.84-5.197-5.346-5.826-16.876-7.275-23.534-.755-2.267 2.216-3.213 5.174-5.107 7.514-1.876-1.325-.722-3.422-1.885-4.774-4.495-5.22-9.981-7.672-17-6.862-5.42.624-9.596 3.722-10.93 9.047-.333 1.325-.915 1.816-2.194 1.837-1.006.018-1.67-.264-1.724-1.352-.276-5.398-4.82-6.89-8.46-9.166-.67-.42-1.779-.442-1.657-1.433.088-.7 1.018-.813 1.74-1.037 4.412-1.355 9.58-8.987 10.31-13.449.828-5.058-2.63-8.132-4.725-11.633-.964-1.612-3.18-4.055-5.192-4.41-4.394-.776-8.932-2.061-13.375.973-3.691 2.519-6.561 5.44-8.656 9.463-.727-1.406-2.276-2.207-3.297-3.898-1.619-2.68-3.765-5.801-6.953-6.61-9.593-2.426-17.752.042-21.228 11.066-.188.588-.312 1.282-1.082 1.094-.333-.079-.724-.655-.776-1.046-.53-4.125-3.564-6.56-6.343-9.005-4.401-3.88-11.19-4.034-16.406-1.022-3.213 1.855-5.947 3.992-7.11 7.669-.304.958-.719 1.916-1.825 1.991-1.54.106-.888-1.379-1.346-2.058-2.676-3.995-5.91-7.832-10.478-9.226-7.695-2.346-15.217 1.821-17.978 9.241-.473 1.273-1.282 1.222-2.2 1.364-.977.149-1.844-.112-1.762-1.218.149-2.037-1.254-3.14-2.379-4.407-5.277-5.947-14.37-8.002-20.9-2.865-2.207 1.737-6.147 3.086-5.538 7.378.127.888-.721 1.215-1.524 1.04-.87-.185-2.228.1-2.243-1.285-.024-1.956-1.255-3.092-2.404-4.383-7.665-8.575-20.412-6.635-26.092 3.106-.564.97.055 2.992-1.349 2.983-1.31-.006-1.903-1.84-2.737-2.958-2.124-2.843-4.503-5.862-7.55-7.323-7.034-3.368-17.915 1.667-20.997 9.093-3.113 7.493 1.573 17.747 9.335 20.375.685.23 1.567.197 1.518 1.17-.048.915-.93.875-1.603 1.13-4.219 1.597-7.568 4.58-9.295 8.511-3.734 8.508.666 18.274 9.395 22.024.57.245 1.249.324 1.206 1.058-.039.721-.782.709-1.309.979-3.122 1.594-5.743 3.64-8.038 6.483-1.7 2.104-.863 4.85-3.285 7.48.145-3.2-1.437-4.9-2.704-6.619-2.937-3.995-6.473-7.06-11.98-7.299-6.656-.294-10.887 3.201-13.882 8.36-3.837 6.601-2.43 10.724 2.45 16.701 2.851 3.492 6.476 3.8 10.37 3.792 4.465-.012 8.675-.088 11.763-4.55 1.589-2.294 2.052-5.456 4.88-7.102 1.525 1.91.433 4.444 2.07 6.438 2.058 2.507 4.8 4.126 6.929 6.466.472.521 1.333.827 1.224 1.621-.112.834-.937 1.091-1.685 1.07-1.676-.048-2.65 1.067-3.613 2.134-2.291 2.531-3.752 5.586-5.125 9.16-1.206-1.791-2.588-3.05-2.964-4.556-1.076-4.337-4.956-6.029-8.09-6.586-6.319-1.128-12.641-1.567-17.709 4.907-5.47 6.984-3.37 18.608 4.895 23 7.605 4.043 18.81-.08 22.613-7.833.252-.512.17-1.373.967-1.203.494.106 1.115.649 1.273 1.128 1.534 4.695 4.455 7.795 9.49 8.587 1.13.178 1.16 1.015 1.209 1.906.06 1.012-.303 1.54-1.349 1.749-5.543 1.118-8.868 4.331-9.405 10.12-.057.619-.251 1.262-.954 1.35-.725.087-.964-.498-1.188-1.107-.704-1.891-1.643-3.925-2.81-5.286-5.555-6.486-19.188-7.92-24.513.627-2.658 4.265-4.425 8.7-1.507 14.289 1.804 3.45 3.795 5.577 7.005 7.362 2.54 1.413 11.532 2.267 13.62.355 3.07-2.807 6.456-5.392 8.217-9.363.266-.606.606-1.146 1.276-1.03.673.115.748.803.918 1.4 1.3 4.6 3.095 8.76 8.368 10.181.646.17 2.904 1.47.867 2.398-8.792 3.998-10.453 11.108-9.226 19.674.197 1.367.315 2.552 1.358 3.877 2.716 3.452 5.692 6.356 10.087 7.914-6.432 2.043-10.102 6.502-12.457 13.143-3.086-7.575-7.135-12.337-15.524-12.71-8.82-.39-13.25 4.465-16.888 11.594-.485-.8-.86-1.243-1.045-1.755-2.42-6.771-7.862-9.208-14.4-9.857C6.424 439.528.002 447.151.041 455.947c.03 6.687 2.47 12.003 9.26 14.467.994.361 2.358.704 2.27 1.989-.064.96-1.28 1.085-2.173 1.452-4.886 1.997-7.65 6.17-8.993 10.85-2.143 7.448 4.552 17.593 12.123 19.3 6.29 1.415 15.743-3.632 17.94-9.627.273-.746-.052-1.84 1.255-1.773.973.048 1.415.7 1.715 1.582 1.037 3.055 3.158 5.325 5.61 7.274 1.103.876 2.543 1.325 3.658 2.189 1.425 1.106 2.013 1.94-.53 2.77-8.098 2.646-11.711 12.67-7.574 20.408 4.807 8.99 10.402 11.242 19.388 8.178 4.792-1.634 9.399-8.141 9.441-12.891.052-5.71-1.33-10.42-6.246-14.304-2.064-1.633-4.662-.418-6.098-2.594 4.77-3.28 9.995-6.032 12.572-11.767.554-1.236 1.551-.276 1.851.843 1.455 5.459 6.171 8.144 10.614 9.439 3.716 1.079 8.39 1.424 12.445-1.58 4.47-3.306 9.005-11.65 7.35-16.607-1.6-4.792-4.004-9.357-9.014-11.715-.855-.403-2.452-.097-1.952-1.888.325-1.16 1.237-1.458 2.298-1.946 3.921-1.803 7.528-4.722 8.389-8.802 1.179-5.571 1.643-11.497-4.052-15.798-2.558-1.928-4.722-4.368-8.047-5.607 6.48-1.419 9.98-6.156 13.381-11.628 3.961 9.333 10.741 12.252 19.755 10.843.715-.113 1.446-.164 2.17-.207.867-.048 1.467-.266 2.049-1.106 1.924-2.785 5.564-3.822 7.21-7.017.628-1.215 1.973-1.721 2.65.118 2.063 5.599 5.997 8.427 11.97 8.372 2.056-.018 4.114-.1 6.169-.157 5.358-.149 7.683-4.301 10.335-7.948.424-.579.021-1.797 1.264-1.8.973-.003 1.236.858 1.782 1.494 2.706 3.146 4.6 7.29 9.359 8.069.676.109 1.118.463 1.043 1.19-.076.728-.694.831-1.27 1.065-5.892 2.38-9.817 8.023-9.932 14.112-.055 3.028.709 5.687 1.906 8.563 1.946 4.686 5.674 6.729 9.774 7.56 8.499 1.724 15.24-1.15 18.846-9.576.246-.566.324-1.245 1.028-1.318 1.012-.106.963.77 1.227 1.43 1.652 4.171 4.625 7.09 8.571 9.17 1.452.766 3.398-.034 5.022 2.052-9.956 2.867-15.536 9.071-13.099 19.45 1.452 6.186 9.402 11.196 14.979 10.984 6.064-.233 13.447-6.159 14.632-12.788 1.786-9.996-5.119-14.494-12.787-18.15.11-.178.152-.357.237-.379 6.183-1.57 11.129-4.519 13.141-11.108.407-1.33 1.467-1.095 1.928.236 1.197 3.443 3.852 5.753 6.383 8.13 2.218 2.085 12.757 3.258 14.878 1.445 3.08-2.63 7.038-4.562 8.002-9.126.206-.982 1.173-1.589 2.224-1.564 1.158.03 1.022 1.067 1.261 1.86.94 3.11 3.161 5.375 5.656 7.139 5.892 4.17 12.156 3.1 17.779-.294 1.973-1.188 4.476-3.158 4.988-6.141.17-.985-.127-2.361 1.598-2.313 1.536.049 2.664.67 2.579 2.346-.149 2.853 1.806 4.413 3.664 5.868 1.267.995 2.93 1.531 4.48 2.095 5.961 2.152 15.345 1.079 18.479-6.047.688-1.564 1.794-3.731 3.085-4.04 1.673-.404.615 2.488 1.9 3.334.294.194.54.49.743.788 4.28 6.207 10.326 7.714 17.436 6.817 2.834-.358 4.931-1.925 7.056-3.471 2.749-2.003 4.367-4.868 5.392-8.299 1.176 2.722 2.403 5.238 4.4 7.217 2.068 2.049 4.304 3.889 7.253 4.589.491.115.761.588.594 1.128-.215.703-.888.666-1.451.866-4.395 1.567-7.696 4.71-9.332 8.812-2.604 6.525.188 14.685 6.043 18.838 5.88 4.173 12.381 4.176 18.07-.77 1.912-1.664 3.689-3.128 4.574-5.662.342-.982 2.264-3.704 3.182-1.343 1.721 4.422 4.655 7.256 8.304 9.827.482.342 2.25 2.273.24 2.737-3.095.715-4.731 3.013-6.353 5.083-5.031 6.413-5.198 12.7.11 18.986 4.603 5.45 10.27 8.02 17.966 5.226 4.395-1.595 7.398-3.689 8.968-7.896.494-1.337 1.443-1.461 2.55-1.543 1.17-.09 1.139.78 1.487 1.58 1.716 3.943 4.256 7.053 8.911 7.54 1.352.143 1.861.78 1.882 2.11.015 1.328-.758 1.51-1.8 1.755-6.053 1.43-10.657 7.28-10.866 13.419-.203 5.85 4.768 13.636 11.4 15.067 3.421.736 7.219 1.037 10.428-.243 4.092-1.633 6.66-5.31 8.547-9.296.3-.63.237-1.521 1.261-1.367.734.11.73.822.94 1.382 1.433 3.826 3.903 7.126 7.528 8.672 3.195 1.361 6.438 4.083 10.375 2.38 1.44-.622 2.806-1.222 4.382-1.504 2.689-.482 7.778-6.132 8.169-8.738.142-.97-.382-2.446 1.357-2.416 1.419.024 2.716.591 2.798 2.258.285 5.75 5.055 7.456 9.062 8.623 6.253 1.828 12.08-.054 16.233-5.498 2.743-3.595 5.322-7.732 2.904-12.124-2.313-4.201-4.347-9.13-9.905-10.566-1.549-.404-1.23-1.289-.233-2.368 1.327-1.44 3.473-1.36 4.703-2.819 1.589-1.885 3.831-3.243 4.228-6.095.125-.91 1.13-2.376 2.531-2.21 1.058.128.976 1.431 1.37 2.277 1.452 3.116 3.846 5.443 6.91 6.99.791.396 2.15.014 2.022 1.463-.091 1.052-.297 2.258-1.558 2.64-2.867.867-4.316 3.407-6.25 5.329-1.885 1.88-2.6 14.95-.57 16.337 1.828 1.25 1.216 3.492 3.11 4.562 6.429 3.62 18.276 5.071 23.929-3.404 5.252-7.868 2.3-20.278-6.51-22.772-1.622-.458-1.71-1.673-1.783-2.752-.097-1.404 1.282-1.085 2.161-1.295.988-.23 1.752-.515 2.65-1.345 2.118-1.955 4.018-3.835 4.97-6.657.33-.985 1.637-3.534 2.622-.818 1.854 5.123 5.628 8.157 10.138 10.07 3.306 1.403 7.25 1.742 10.677-.407 3.628-2.273 6.805-5.04 8.793-8.966.551-1.097 1.379-.8 2.027-.06 2.037 2.324 4.422 4.361 6.414 6.635 1.576 1.797 3.394 2.93 5.255 3.27 7.198 1.31 13.075-1.555 17.955-6.741.54-.573.66-1.434.057-1.955-1.133-.985-.294-1.467.413-1.852.736-.403 1.873-.779 2.279.142.854 1.934 3.137 2.677 3.825 4.396.894 2.242 2.773 3.08 4.425 4.234 8.034 5.613 18.376-.255 22.382-7.863.255-.482-.036-1.327.737-1.455.876-.139 1.136.658 1.54 1.252 1.679 2.468 3.23 4.895 5.71 6.878 6.219 4.974 12.674 3.983 17.87.633 1.624-1.049 4.343-1.9 4.612-4.343.291-2.65 2.495-3.904 3.267-6.117 1.252.56.982 1.543 1.234 2.292 1.212 3.64 5.489 8.61 9.865 8.917 2.907.206 5.783.421 8.696.06 4.61-.572 11.326-7.868 11.905-12.454.84-6.684-3.01-12.346-10.82-16.256-.925-.463-1.873-.882-.603-1.979.821-.71 1.555-1.682 2.512-2.037 3.634-1.346 6.02-3.783 7.171-7.447.349-1.106 1.13-1.461 2.17-1.591.816-.1 1.628.03 1.63.927.01 3.356 2.75 4.786 4.638 6.802 4.237 4.516 13.318 3.81 16.667 1.488 3.364-2.33 6.089-5.156 8.065-8.83 1.479-2.749 1.627-8.168.106-10.88-2.58-4.596-5.907-8.267-11.739-10.225 6.465-4.061 12.672-7.91 12.833-16.03.167-8.43-5.801-12.746-12.302-16.371.842-1.031 1.576-1.164 2.176-1.507 3.552-2.043 6.98-4.252 8.298-8.523.249-.803-.36-2.264 1.146-2.25 1.146.013 2.022.943 2.422 1.968.524 1.33.336 3.27 1.233 4.07 4.822 4.317 9.787 7.693 17.088 5.28 5.48-1.809 9.008-4.87 10.878-10.13.163-.457.194-1.002.766-1.081.761-.103.88.506 1.173 1.06 4.928 9.257 7.408 10.294 17.055 10.07 5.528-.127 9.51-2.18 11.756-7.423 1.082-2.528 2.283-2.198 4.259-.237 1.958 1.946 2.752 4.683 5.961 5.978 3.707 1.49 3.668 3.419.685 4.643-2.949 1.21-4.464 3.383-6.258 5.586-1.21 1.489-.146 3.592-1.658 5.002-1.77 1.645-1.567 4.095-.715 5.759 1.712 3.361 2.715 7.016 5.885 9.796 4.804 4.216 15.391 4.868 20.068.612 2.358-2.146 3.74-5.028 6.064-7.171.961-.888 1.519-1.731 2.228.133 2.285 5.999 6.934 10.727 14.312 9.93 1.203-.13 2.421-.076 3.63-.155 4.453-.285 9.754-4.683 10.775-9.138.3-1.328.737-1.837 2.1-1.831 1.45.009 1.846.74 1.992 1.994.16 1.407.054 2.898 1.409 3.953 4.452 3.455 9.074 5.832 15.109 5.089 5.607-.694 11.162-6.105 12.162-11.303 1.516-7.874-.894-15.773-9.89-19.39-.527-.215-1.12-.506-.969-1.779 2.23.282 3.998-1.051 5.568-2.518 9.325-8.742 9.38-15.301 1.276-24.394-2.425-2.72-6.223-2.795-8.957-5.635 3.577.04 6.35-1.643 8.344-3.586 5.253-5.107 7.193-13.376 2.122-20.653-4.737-6.793-14.312-8.987-21.089-4.062-3.406 2.476-4.664 5.904-6.964 8.842-.413.52-.349 1.579-1.258 1.503-.916-.079-.937-1.012-.937-1.713.003-1.833-1.094-3.019-2.097-4.425-3.664-5.135-8.814-5.832-14.466-5.32-7.56.692-10.03 2.777-12.093 10.197-.167.591-.225 1.28-.955 1.325-.694.048-.912-.582-1.203-1.14-2.216-4.27-5.231-7.787-9.544-10.093-2-1.067-1.967-2.816.024-4.023 1.6-.973 3.63-1.779 4.77-2.88 4.107-3.96 5.932-9.359 4.495-14.83-1.236-4.713-4.476-9.22-9.274-10.57-5.444-1.53-11.25-1.066-16.56 1.892-2.595 1.446-2.077 4.474-3.798 6.232-.776.788-.218 2.543-1.588 2.573-1.27.034-1.416-1.476-1.825-2.397-1.915-4.286-4.21-7.987-9.429-8.906-1.458-.254-.627-1.115.243-1.9 3.973-3.583 9.395-6.02 10.098-12.3.06-.506.476-.976.961-.837.36.103.864.688.828 1.004-.288 2.506 2.194 3.698 2.721 5.944.388 1.658 2.195 3.437 4.074 3.822 4.637.954 9.395 1.376 14.069.273 3.337-.783 5.6-3.074 6.983-6.214.985-2.234 2.84-4.05 2.652-6.826-.44-6.405-4-10.29-9.178-13.776-5.898-3.974-16.32-.394-19.34 5.616-.963 1.922-1.666 4.029-3.297 6.854-.5-4.326-2.146-7.154-4.24-9.815-2.237-2.843-5.746-3.531-8.91-5.459 3.509-1.449 6.867-2.591 9.077-5.368 1.354-1.697 2.279-3.743 3.315-5.68.297-.552.507-1.176 1.195-1.146.697.034.888.643 1.04 1.276.496 2.116 1.796 3.892 3.133 5.426 4.786 5.507 13.45 6.65 20.18 2.343 8.825-5.644 9.725-16.786 1.912-24.24-2.13-2.033-5.459-2.321-6.92-5.346 5.198-1.764 9.432-4.671 11.82-9.833.328-.7.322-2.258 1.734-1.846.949.273.834 1.473.8 2.237-.127 3.052 2.131 4.559 4.056 6.062 3.788 2.958 8.347 2.843 12.899 2.71 4.989-.146 8.413-2.97 10.805-6.775 5.51-8.768 1.8-19.556-7.22-22.008-.936-.255-2.791.267-2.549-1.137.188-1.1 1.2-2.443 2.77-2.94 5.602-1.77 9.608-7.402 9.793-13.612.212-7.117-3.67-11.773-9.504-14.95-1.989-1.084-1.716-1.354-.234-2.545 4.089-3.29 7.908-6.617 9.25-12.264 1.17-4.913-.082-9.93-4.146-13.703-2.346-2.18-4.528-4.495-7.962-5.347 4.046-.97 6.768-3.622 8.962-6.59 2.307-3.11 5.107-6.623 4.274-10.627-.913-4.382-2.983-8.632-6.835-11.478-1.315-.967-2.967-1.464-4.355-2.352-.624-.4-1.637-.91-1.382-1.846.188-.697 1.24-.606 1.806-.937 3.361-1.97 6.892-3.819 8.117-7.993.3-1.018-.17-2.649 1.836-2.473 1.543.133 1.91 1.21 2.195 2.443.96 4.159 3.78 6.626 7.589 8.072.891.34 2.091.163 1.928 1.573-.137 1.176-.276 2.4-1.937 2.622-2.125.285-3.683 1.976-4.895 3.307-3.952 4.34-3.03 9.814-2.494 15.07.33 3.237.727 6.486 5.016 6.908.179.018.221.703.463.93 2.074 1.9 10.769 3.147 13.151 1.789 6.844-3.892 11.187-9.154 9.826-17.696-.454-2.852-4.743-9.547-7.525-10.005-2.458-.406-3.656-1.885-5.144-3.662 6.768-.903 11.454-4.08 13.051-11 .297-1.3 1.079-.496 1.816.116 1.454 1.206 1.715 3.058 2.74 4.45 4.552 6.177 13.617 7.544 20.621 4.019 2.188-1.1 2.589-3.062 4.21-4.28 2.937-2.2 4.34-12.197 2.273-15.204z"/>
    </g>
</svg>
