<svg xmlns="http://www.w3.org/2000/svg" width="69" height="80" viewBox="0 0 69 80">
    <g fill="#FFF" fill-rule="evenodd">
        <path d="M33 14.913A4.092 4.092 0 0 1 37.087 19 4.092 4.092 0 0 1 33 23.087 4.092 4.092 0 0 1 28.913 19 4.092 4.092 0 0 1 33 14.913M27 19c0 3.308 2.691 6 6 6s6-2.692 6-6c0-3.31-2.691-6-6-6s-6 2.69-6 6M23.5 1.892c1.414 0 2.608 1.194 2.608 2.608A2.58 2.58 0 0 1 23.5 7.108 2.58 2.58 0 0 1 20.892 4.5 2.58 2.58 0 0 1 23.5 1.892M23.5 9C26.023 9 28 7.023 28 4.5 28 2.02 25.98 0 23.5 0 20.977 0 19 1.977 19 4.5 19 7.023 20.977 9 23.5 9M41.5 1.892c1.413 0 2.607 1.194 2.607 2.608A2.58 2.58 0 0 1 41.5 7.108 2.58 2.58 0 0 1 38.893 4.5c0-1.414 1.194-2.608 2.607-2.608M41.5 9C44.023 9 46 7.023 46 4.5 46 2.02 43.982 0 41.5 0 39.02 0 37 2.02 37 4.5 37 7.023 38.977 9 41.5 9M62.281 23h-6.31a.97.97 0 0 0-.971.973.97.97 0 0 0 .97.972h6.311c2.634 0 4.778 2.18 4.778 4.858v12.362a2.12 2.12 0 0 1-2.114 2.12 2.117 2.117 0 0 1-2.115-2.116V31.832h-1.94v31.195a.971.971 0 1 0 1.94 0V45.632a4.03 4.03 0 0 0 2.115.597A4.065 4.065 0 0 0 69 42.165V29.803C69 26.052 65.985 23 62.281 23M51.954 16c0-1.651 1.395-3.046 3.046-3.046 1.651 0 3.046 1.395 3.046 3.046 0 1.65-1.395 3.046-3.046 3.046-1.651 0-3.046-1.396-3.046-3.046M60 16c0-2.71-2.29-5-5-5s-5 2.29-5 5 2.29 5 5 5 5-2.29 5-5M13 19.046c-1.65 0-3.046-1.396-3.046-3.046 0-1.652 1.396-3.046 3.046-3.046 1.651 0 3.046 1.394 3.046 3.046 0 1.65-1.395 3.046-3.046 3.046M13 11c-2.71 0-5 2.289-5 5 0 2.71 2.29 5 5 5s5-2.29 5-5c0-2.711-2.29-5-5-5M13.03 23H6.718C3.015 23 0 26.052 0 29.803v12.362a4.065 4.065 0 0 0 4.055 4.064 4.03 4.03 0 0 0 2.115-.597v17.395a.97.97 0 1 0 1.94 0V31.832H6.17v10.337a2.117 2.117 0 0 1-2.115 2.115 2.12 2.12 0 0 1-2.114-2.119V29.803c0-2.678 2.144-4.858 4.778-4.858h6.31a.97.97 0 0 0 .971-.972.97.97 0 0 0-.97-.973M40.823 28H26.178C21.669 28 18 31.674 18 36.189v15.293c0 1.24.495 2.399 1.392 3.261a4.492 4.492 0 0 0 3.331 1.274 4.582 4.582 0 0 0 2.494-.828v23.857c0 .528.43.954.96.954.532 0 .962-.426.962-.954V38.674h-1.922v12.81a2.628 2.628 0 0 1-2.558 2.627 2.649 2.649 0 0 1-1.93-.739 2.6 2.6 0 0 1-.808-1.89V36.19c0-3.464 2.807-6.281 6.257-6.281h14.645c3.45 0 6.256 2.817 6.256 6.281v15.293c0 .719-.287 1.39-.807 1.89a2.646 2.646 0 0 1-1.929.739 2.628 2.628 0 0 1-2.56-2.628V38.674h-1.92v40.372c0 .528.429.954.96.954.531 0 .96-.426.96-.954V55.189a4.58 4.58 0 0 0 2.496.828 4.489 4.489 0 0 0 3.329-1.274A4.486 4.486 0 0 0 49 51.483V36.188C49 31.674 45.331 28 40.823 28"/>
    </g>
</svg>
