<svg xmlns="http://www.w3.org/2000/svg" width="28" height="28" viewBox="0 0 28 28">
    <path fill="#F8A058" fill-rule="evenodd" d="M5.9 12.564a23.354 23.354 0 0 0 4.212 5.724 23.354 23.354 0 0 0 5.724 4.212l3.312-3.312c.192-.216.432-.36.72-.432.288-.072.564-.048.828.072 1.584.552 3.36.828 5.328.828.408 0 .756.144 1.044.432.288.288.432.636.432 1.044v5.292c0 .408-.144.756-.432 1.044a1.422 1.422 0 0 1-1.044.432c-3.456 0-6.768-.672-9.936-2.016a25.422 25.422 0 0 1-8.1-5.472 25.422 25.422 0 0 1-5.472-8.1A25.186 25.186 0 0 1 .5 2.376c0-.408.144-.756.432-1.044A1.422 1.422 0 0 1 1.976.9h5.292c.408 0 .756.144 1.044.432.288.288.432.636.432 1.044 0 1.968.276 3.744.828 5.328.072.264.084.54.036.828a1.2 1.2 0 0 1-.396.72L5.9 12.564z"/>
</svg>
