<svg xmlns="http://www.w3.org/2000/svg" xmlns:xlink="http://www.w3.org/1999/xlink" width="74" height="105" viewBox="0 0 74 105">
    <defs>
        <path id="a" d="M44.843.245H.78v86.093h44.063V.245z"/>
    </defs>
    <g fill="none" fill-rule="evenodd">
        <g transform="translate(15)">
            <mask id="b" fill="#fff">
                <use xlink:href="#a"/>
            </mask>
            <path fill="#FFF" d="M42.968 84.526h-37.5V35.589h37.5v48.937zm-18.75-68.874h5.044l-2.133 4.126c-.005.01-.007.022-.013.033-.01.02-.014.04-.021.06a.915.915 0 0 0-.057.277c-.001.013-.008.022-.008.035v10.875h-1.875v2.719h-.938V15.652zM37.343 32.87h.937v.907H27.03v-.907h10.313zm-7.86-13.593l1.875-3.625h2.592l1.875 3.625h-6.342zm-.578 11.78h7.5V21.09h-7.5v9.969zm9.375 0V20.275c.002-.032.019-.058.019-.091a.866.866 0 0 0-.194-.55l-2.058-3.981h5.046v18.125h-.938v-2.72H38.28zM24.217 10.214h16.875v3.626H24.218v-3.626zm3.75-1.812h9.376V2.057h-9.376v6.344zM3.594 52.195c-.553-.255-.938-.796-.938-1.426V40.347c0-.629.385-1.17.938-1.426v13.274zm0 11.497c-.553-.256-.938-.798-.938-1.426v-2.72c0-.63.385-1.17.938-1.427v5.573zm39.374-48.04V8.4h-3.75V.245H26.093V8.4h-3.75V33.777H3.593v3.24C1.99 37.334.78 38.706.78 40.347v10.422c0 1.641 1.21 3.013 2.813 3.33v2.118C1.99 56.533.78 57.905.78 59.547v2.719c0 1.64 1.21 3.012 2.813 3.328v20.744h41.25V33.777h-1.876V15.652z" mask="url(#b)"/>
        </g>
        <path fill="#FFF" d="M39.031 72.953c-5.765-3.55-12.285-9.228-12.285-13.974 0-3.42 2.734-6.202 6.093-6.202 1.918 0 3.687.893 4.852 2.45l1.308 1.75 1.31-1.75c1.164-1.557 2.932-2.45 4.852-2.45 3.36 0 6.093 2.783 6.093 6.202-.001 6.491-9.771 12.554-12.223 13.974M45.161 51c-2.426 0-4.663 1.108-6.16 3.045C37.501 52.108 35.263 51 32.838 51 28.517 51 25 54.58 25 58.98c0 7.055 10.388 13.849 13.572 15.764l.427.256.434-.242C41.7 73.503 53 66.838 53 58.98 53 54.58 49.483 51 45.16 51M5.5 85.31a15.995 15.995 0 0 0-3.025-4.81A16.001 16.001 0 0 0 5.5 75.69a16.016 16.016 0 0 0 3.024 4.81A16.01 16.01 0 0 0 5.5 85.31m1.185-11.456L5.5 70l-1.185 3.854a14.2 14.2 0 0 1-3.652 6L0 80.5l.663.645a14.214 14.214 0 0 1 3.652 6L5.5 91l1.185-3.855c.7-2.281 1.963-4.356 3.652-6L11 80.5l-.663-.646a14.2 14.2 0 0 1-3.652-6M64.475 14.5A16.015 16.015 0 0 0 67.5 9.689a16.018 16.018 0 0 0 3.025 4.811 16.003 16.003 0 0 0-3.025 4.81 16 16 0 0 0-3.025-4.81m7.862.646L73 14.5l-.663-.646a14.22 14.22 0 0 1-3.652-6L67.499 4l-1.184 3.854a14.23 14.23 0 0 1-3.653 6L62 14.5l.662.646a14.213 14.213 0 0 1 3.653 6L67.5 25l1.186-3.854a14.203 14.203 0 0 1 3.652-6"/>
        <g fill="#FFF">
            <path d="M67.52 97.797l2.487 1.678 1.118-1.659-2.487-1.677zM70.066 88.657l2.776-.539.381 1.963-2.775.54zM61.446 101.438l1.963-.383.54 2.777-1.963.381z"/>
        </g>
        <g fill="#FFF">
            <path d="M11.514 21.652l2.264 1.968-1.312 1.51-2.264-1.969zM19.183 18.805l.198 2.82 1.995-.139-.198-2.82zM7.097 30.158l.14 1.996 2.82-.197-.139-1.995z"/>
        </g>
    </g>
</svg>
