<svg xmlns="http://www.w3.org/2000/svg" xmlns:xlink="http://www.w3.org/1999/xlink" width="65" height="66" viewBox="0 0 65 66">
    <defs>
        <path id="a" d="M9.234 9H.564V.329h8.67z"/>
    </defs>
    <g fill="none" fill-rule="evenodd">
        <path fill="#000" d="M47.569 22.94c-1.5 1.494-4.103 1.493-5.6-.002a3.93 3.93 0 0 1-1.158-2.798c0-1.059.412-2.053 1.16-2.8a3.932 3.932 0 0 1 2.798-1.16c1.057 0 2.05.412 2.8 1.16a3.968 3.968 0 0 1 0 5.6m-2.8-8.76c-1.59 0-3.086.62-4.212 1.745a5.917 5.917 0 0 0-1.746 4.215c0 1.593.62 3.09 1.746 4.213a5.918 5.918 0 0 0 4.212 1.745 5.922 5.922 0 0 0 4.214-1.744 5.97 5.97 0 0 0 0-8.428 5.925 5.925 0 0 0-4.214-1.746"/>
        <path fill="#000" d="M58.947 10.874c-2.527 6.59-7.18 16.08-14.991 23.907-.842.69-1.756 1.51-2.722 2.378-1.05.944-2.18 1.96-3.295 2.863a62.695 62.695 0 0 1-2.475 1.79l-.064.038-.376.225-.01.041a66.634 66.634 0 0 1-3.586 2.256 2.39 2.39 0 0 0-.3.175 76.322 76.322 0 0 1-7.473 3.784l-3.124-3.123 6.533-6.53a1 1 0 0 0-1.414-1.415l-6.533 6.531-3.121-3.122a76.17 76.17 0 0 1 3.74-7.407c.082-.118.154-.243.187-.312a66.523 66.523 0 0 1 2.29-3.646l.263-.384a63.545 63.545 0 0 1 1.861-2.581c.895-1.1 1.895-2.213 2.826-3.248.87-.968 1.693-1.882 2.38-2.727 7.83-7.812 17.32-12.463 23.909-14.99a81.437 81.437 0 0 1 8.135-2.639 81.604 81.604 0 0 1-2.64 8.136zM39.972 51.607L33.83 57.77l2.977-14.44a26.487 26.487 0 0 0 2.4-1.76 61.37 61.37 0 0 0 3.723-3.068l-2.958 13.105zM6.556 30.494l6.162-6.14 13.106-2.96a61.524 61.524 0 0 0-3.033 3.68 27.113 27.113 0 0 0-1.796 2.442l-14.44 2.978zM62.735.384a81.852 81.852 0 0 0-10 3.126C46.014 6.088 36.344 10.825 28.3 18.784l-16.585 3.744L.4 33.808l19.058-3.933a69.394 69.394 0 0 0-1.293 2.126 1.716 1.716 0 0 1-.115.191 78.641 78.641 0 0 0-4.162 8.31l-.268.623 4.083 4.083-5.485 5.484a.999.999 0 1 0 1.414 1.414l5.485-5.484 4.084 4.084.623-.268a78.042 78.042 0 0 0 8.559-4.309 70.335 70.335 0 0 0 2.064-1.256l-3.928 19.052 11.278-11.314 3.743-16.586c7.958-8.043 12.695-17.713 15.274-24.434a82.324 82.324 0 0 0 3.127-10L64.326 0l-1.591.383zM6.932 55.98l-6.64 6.639a1 1 0 0 0 1.415 1.413l6.639-6.638a.999.999 0 1 0-1.414-1.414"/>
        <path fill="#000" d="M3.35 48.509l3.71-3.711a.999.999 0 1 0-1.413-1.414l-3.711 3.71A.999.999 0 1 0 3.35 48.51"/>
        <g transform="translate(12 56.643)">
            <mask id="b" fill="#fff">
                <use xlink:href="#a"/>
            </mask>
            <path fill="#000" d="M7.526.622L.857 7.293a.999.999 0 1 0 1.414 1.414l6.67-6.67A.999.999 0 1 0 7.525.621" mask="url(#b)"/>
        </g>
    </g>
</svg>
