<svg xmlns="http://www.w3.org/2000/svg" xmlns:xlink="http://www.w3.org/1999/xlink" width="60" height="60" viewBox="0 0 60 60">
    <defs>
        <path id="a" d="M0 60h60V0H0z"/>
    </defs>
    <g fill="none" fill-rule="evenodd">
        <path fill="#FFF" d="M12 31v1.48l.454.52H20v-6h-7.546l-.454.52V29h3v2h-3zm20 6.5v-15l-10 4.167v6.666L32 37.5zM36 27v-5h-2v16h2V27zm4 1.78l-2-.5v3.44l2-.5v-2.44zM20.587 38.59l-2.154-3.59h-3.49l3.374 4.726 2.27-1.136zm-10.339-5.072a1 1 0 0 1-.248-.66v-5.713c0-.244.088-.478.248-.66l1-1.142A.997.997 0 0 1 12 25h8.8l11.809-4.92.004-.002.002-.001c.112-.046.23-.063.347-.07.013 0 .024-.007.038-.007h4a1 1 0 0 1 1 1v5.22l3.243.81c.445.113.757.51.757.97v4a.998.998 0 0 1-.757.969l-3.243.81V39a1 1 0 0 1-1 1h-4a.977.977 0 0 1-.385-.076l-.002-.001-.004-.002L20.8 35h-.034l2.091 3.486a.997.997 0 0 1-.41 1.41l-4 2c-.143.07-.296.104-.447.104a.996.996 0 0 1-.814-.42L12.485 35H12a1 1 0 0 1-.752-.341l-1-1.142z"/>
        <mask id="b" fill="#fff">
            <use xlink:href="#a"/>
        </mask>
        <path fill="#FFF" d="M28 50h4v-2h-4zM47 31h3v-2h-3zM44.292 22.293l2-2 1.414 1.415-2 1.999zM44.292 37.708l1.414-1.415 2 2-1.414 1.414zM10 11.382V6.618L14.764 9 10 11.382zm7.447-3.276l-8-4A1 1 0 0 0 8 5v8c0 .348.18.668.474.852a1.011 1.011 0 0 0 .973.044l8-4a1.003 1.003 0 0 0 0-1.79z" mask="url(#b)"/>
        <path fill="#FFF" d="M36 16h22V8H36v8zm20 36H4V18h2v27a1 1 0 0 0 1 1h46a1 1 0 0 0 1-1V18h2v34zm-1 6H5c-1.421 0-2.65-1.749-2.937-4H57.937c-.287 2.251-1.516 4-2.937 4zM2 16h22V2H2v14zm24 1v-1h8v1a1 1 0 0 0 1 1h17v26H8V18h17a1 1 0 0 0 1-1zM37.382 2l2 4H36V2h1.382zm14.236 4l-2-4h2.764l2 4h-2.764zm-5 0l-2-4h2.764l2 4h-2.764zm-5 0l-2-4h2.764l2 4h-2.764zM58 6h-1.382l-2-4H58v4zm1-6H35a1 1 0 0 0-1 1v13h-8V1a1 1 0 0 0-1-1H1a1 1 0 0 0-1 1v16a1 1 0 0 0 1 1h1v34H1a1 1 0 0 0-1 1c0 3.925 2.196 7 5 7h50c2.804 0 5-3.075 5-7a1 1 0 0 0-1-1h-1V18h1a1 1 0 0 0 1-1V1a1 1 0 0 0-1-1z" mask="url(#b)"/>
    </g>
</svg>
